<svg width="168" height="56" fill="none" xmlns="http://www.w3.org/2000/svg"><g clip-path="url(#a)"><path d="M154.622 0H13.386a112.225 112.225 0 0 0-2.827.021 18.41 18.41 0 0 0-2.813.247 9.376 9.376 0 0 0-2.67.878 9.037 9.037 0 0 0-3.926 3.92A9.224 9.224 0 0 0 .273 7.73a18.14 18.14 0 0 0-.252 2.803c-.013.43-.014.86-.021 1.29v32.36c.007.434.008.855.021 1.29.011.94.096 1.876.252 2.802.154.928.45 1.828.877 2.666a8.696 8.696 0 0 0 1.654 2.26 8.808 8.808 0 0 0 2.273 1.65c.84.427 1.74.724 2.669.884.93.152 1.87.235 2.813.247.434.01.86.015 1.29.015.514.003 1.022.003 1.537.003h141.236c.504 0 1.017 0 1.521-.003.428 0 .867-.005 1.295-.015a18.705 18.705 0 0 0 2.808-.247 9.575 9.575 0 0 0 2.678-.883 8.813 8.813 0 0 0 2.271-1.65 8.974 8.974 0 0 0 1.659-2.26 9.22 9.22 0 0 0 .869-2.667 18.81 18.81 0 0 0 .261-2.802c.005-.435.005-.856.005-1.29.011-.51.011-1.015.011-1.532v-29.3c0-.513 0-1.022-.011-1.529 0-.43 0-.86-.005-1.29a18.813 18.813 0 0 0-.261-2.802 9.275 9.275 0 0 0-.869-2.665 9.066 9.066 0 0 0-3.93-3.92 9.52 9.52 0 0 0-2.678-.877 18.373 18.373 0 0 0-2.808-.248c-.428-.006-.867-.015-1.295-.017C155.639 0 155.126 0 154.622 0Z" fill="#A6A6A6"/><path d="M11.857 54.775c-.428 0-.845-.005-1.27-.015a17.87 17.87 0 0 1-2.624-.228 8.279 8.279 0 0 1-2.326-.767 7.589 7.589 0 0 1-1.961-1.424 7.453 7.453 0 0 1-1.433-1.955 7.996 7.996 0 0 1-.762-2.32 17.333 17.333 0 0 1-.234-2.625c-.009-.295-.02-1.278-.02-1.278v-32.34s.012-.969.02-1.253c.01-.879.089-1.755.233-2.621.134-.81.39-1.595.763-2.327a7.524 7.524 0 0 1 1.425-1.957 7.813 7.813 0 0 1 1.969-1.432 8.191 8.191 0 0 1 2.32-.761 17.75 17.75 0 0 1 2.634-.23l1.267-.017h144.279l1.282.018c.875.01 1.747.086 2.609.227a8.348 8.348 0 0 1 2.346.767 7.844 7.844 0 0 1 3.391 3.388c.366.728.619 1.506.751 2.309.146.873.227 1.756.244 2.642.004.396.004.822.004 1.246.011.525.011 1.025.011 1.529v29.3c0 .508 0 1.005-.011 1.505 0 .455 0 .872-.005 1.302-.017.87-.097 1.736-.24 2.595a8.032 8.032 0 0 1-.758 2.338 7.689 7.689 0 0 1-1.426 1.94 7.603 7.603 0 0 1-1.965 1.43 8.244 8.244 0 0 1-2.342.77c-.867.142-1.745.218-2.624.229-.411.01-.842.015-1.26.015l-1.522.003-142.765-.003Z" fill="#000"/><path d="M34.774 28.421a6.913 6.913 0 0 1 .905-3.33 6.938 6.938 0 0 1 2.404-2.483 7.105 7.105 0 0 0-5.603-3.02c-2.358-.247-4.643 1.406-5.845 1.406-1.225 0-3.074-1.382-5.066-1.341a7.477 7.477 0 0 0-3.644 1.084 7.45 7.45 0 0 0-2.636 2.735c-2.715 4.688-.69 11.577 1.911 15.366 1.302 1.856 2.823 3.928 4.813 3.855 1.947-.08 2.674-1.238 5.025-1.238 2.329 0 3.01 1.238 5.041 1.191 2.09-.034 3.406-1.864 4.662-3.737a15.331 15.331 0 0 0 2.132-4.33 6.709 6.709 0 0 1-2.979-2.463 6.682 6.682 0 0 1-1.12-3.695ZM30.94 17.095a6.809 6.809 0 0 0 1.565-4.887 6.967 6.967 0 0 0-4.503 2.324 6.49 6.49 0 0 0-1.605 4.706 5.769 5.769 0 0 0 4.544-2.143Zm28.452 20.9h-6.646l-1.595 4.7h-2.815l6.294-17.386h2.925l6.294 17.385h-2.863l-1.594-4.699Zm-5.957-2.168h5.267l-2.596-7.626h-.073l-2.598 7.626Zm24.007.531c0 3.938-2.114 6.47-5.304 6.47a4.32 4.32 0 0 1-4-2.219h-.06v6.279h-2.61V30.019h2.526v2.108h.048a4.504 4.504 0 0 1 4.047-2.24c3.226 0 5.353 2.543 5.353 6.47Zm-2.682 0c0-2.567-1.33-4.254-3.359-4.254-1.993 0-3.334 1.723-3.334 4.254 0 2.553 1.34 4.264 3.334 4.264 2.03 0 3.36-1.675 3.36-4.264Zm16.674 0c0 3.939-2.114 6.47-5.304 6.47a4.32 4.32 0 0 1-4-2.218h-.06v6.278h-2.61V30.019h2.526v2.108h.048a4.519 4.519 0 0 1 4.047-2.24c3.227 0 5.353 2.543 5.353 6.47Zm-2.682 0c0-2.567-1.33-4.254-3.359-4.254-1.993 0-3.334 1.723-3.334 4.254 0 2.553 1.34 4.264 3.334 4.264 2.03 0 3.36-1.675 3.36-4.264Zm11.927 1.492c.193 1.725 1.872 2.856 4.168 2.856 2.199 0 3.781-1.132 3.781-2.686 0-1.35-.954-2.157-3.214-2.711l-2.259-.543c-3.202-.771-4.688-2.264-4.688-4.687 0-3 2.622-5.06 6.344-5.06 3.684 0 6.209 2.06 6.294 5.06h-2.634c-.157-1.735-1.595-2.782-3.697-2.782-2.102 0-3.54 1.06-3.54 2.602 0 1.229.918 1.952 3.166 2.506l1.92.47c3.577.844 5.064 2.277 5.064 4.82 0 3.252-2.599 5.29-6.731 5.29-3.866 0-6.477-1.99-6.645-5.135h2.671Zm16.337-10.83v3h2.418v2.06h-2.418v6.987c0 1.086.484 1.592 1.547 1.592a8.18 8.18 0 0 0 .858-.06v2.048a7.185 7.185 0 0 1-1.449.12c-2.573 0-3.577-.964-3.577-3.422V32.08h-1.848v-2.06h1.848v-3h2.621Zm3.816 9.338c0-3.988 2.355-6.495 6.028-6.495 3.686 0 6.03 2.506 6.03 6.495 0 3.999-2.332 6.494-6.03 6.494-3.696 0-6.028-2.495-6.028-6.494Zm9.4 0c0-2.736-1.257-4.35-3.372-4.35-2.114 0-3.37 1.626-3.37 4.35 0 2.746 1.256 4.349 3.37 4.349 2.115 0 3.372-1.603 3.372-4.35Zm4.807-6.338h2.488v2.157h.061a3.02 3.02 0 0 1 1.121-1.687 3.037 3.037 0 0 1 1.936-.603c.301-.001.601.031.894.097v2.433a3.65 3.65 0 0 0-1.172-.157 2.637 2.637 0 0 0-2.032.834 2.618 2.618 0 0 0-.687 2.082v7.518h-2.609V30.02Zm18.532 8.952c-.351 2.3-2.598 3.88-5.473 3.88-3.697 0-5.993-2.47-5.993-6.434 0-3.976 2.308-6.555 5.884-6.555 3.516 0 5.728 2.41 5.728 6.252v.892h-8.978v.157a3.295 3.295 0 0 0 2.048 3.348c.435.177.902.26 1.372.242a2.871 2.871 0 0 0 2.935-1.783h2.477Zm-8.819-3.783h6.354a3.03 3.03 0 0 0-.854-2.288 3.062 3.062 0 0 0-2.263-.93 3.23 3.23 0 0 0-2.291.936 3.201 3.201 0 0 0-.946 2.282ZM53.104 12.223a3.716 3.716 0 0 1 2.956 1.145 3.693 3.693 0 0 1 .986 3.006c0 2.669-1.447 4.203-3.942 4.203h-3.026v-8.354h3.026Zm-1.725 7.172h1.58a2.64 2.64 0 0 0 2.098-.846 2.624 2.624 0 0 0 .664-2.158 2.625 2.625 0 0 0-.675-2.143 2.64 2.64 0 0 0-2.087-.844h-1.58v5.991Zm7.135-1.973a2.98 2.98 0 0 1 1.77-3.016 3.002 3.002 0 0 1 3.428.723 2.986 2.986 0 0 1 .765 2.293 2.98 2.98 0 0 1-.763 2.297 2.994 2.994 0 0 1-2.219.98 3.002 3.002 0 0 1-2.218-.98 2.984 2.984 0 0 1-.763-2.297Zm4.68 0c0-1.366-.616-2.166-1.697-2.166-1.084 0-1.694.8-1.694 2.166 0 1.377.61 2.17 1.695 2.17 1.08 0 1.695-.798 1.695-2.17Zm9.21 3.155H71.11l-1.307-4.643h-.099l-1.3 4.643h-1.282l-1.743-6.304h1.265l1.133 4.81h.093l1.3-4.81h1.197l1.3 4.81h.098l1.127-4.81h1.248l-1.736 6.304Zm3.202-6.304h1.2v1.001h.094a1.889 1.889 0 0 1 1.886-1.123 2.061 2.061 0 0 1 1.66.648 2.049 2.049 0 0 1 .528 1.697v4.08h-1.247v-3.768c0-1.013-.442-1.517-1.364-1.517a1.455 1.455 0 0 0-1.442.983c-.067.198-.09.407-.068.615v3.688h-1.247v-6.304Zm7.354-2.461h1.249v8.765H82.96v-8.765Zm2.984 5.61a2.977 2.977 0 0 1 .765-2.293 2.994 2.994 0 0 1 2.216-.978 3.002 3.002 0 0 1 2.217.978 2.986 2.986 0 0 1 .765 2.293 2.978 2.978 0 0 1-.763 2.297 2.994 2.994 0 0 1-2.219.98 3.002 3.002 0 0 1-2.218-.98 2.984 2.984 0 0 1-.763-2.297Zm4.68 0c0-1.367-.617-2.166-1.697-2.166-1.084 0-1.694.8-1.694 2.166 0 1.377.61 2.17 1.694 2.17 1.08 0 1.696-.798 1.696-2.17Zm2.599 1.372c0-1.135.847-1.789 2.351-1.882l1.712-.098v-.544c0-.666-.441-1.042-1.294-1.042-.696 0-1.179.255-1.317.7h-1.208c.127-1.083 1.149-1.777 2.583-1.777 1.585 0 2.478.787 2.478 2.119v4.307h-1.2v-.886h-.1a2.125 2.125 0 0 1-1.898.99 1.915 1.915 0 0 1-1.94-1.115 1.899 1.899 0 0 1-.167-.772Zm4.063-.539v-.527l-1.543.099c-.871.058-1.266.353-1.266.909 0 .567.494.897 1.172.897a1.493 1.493 0 0 0 1.637-1.378Zm2.882-.833c0-1.992 1.027-3.254 2.624-3.254a2.092 2.092 0 0 1 1.939 1.106h.093v-3.462h1.248v8.765h-1.196v-.996h-.099a2.19 2.19 0 0 1-1.985 1.1c-1.608 0-2.624-1.262-2.624-3.259Zm1.289 0c0 1.337.632 2.142 1.689 2.142 1.051 0 1.701-.817 1.701-2.137 0-1.313-.656-2.141-1.701-2.141-1.05 0-1.689.81-1.689 2.136Zm9.776 0a2.987 2.987 0 0 1 2.981-3.27 3.005 3.005 0 0 1 2.216.977 2.986 2.986 0 0 1 .765 2.293 2.977 2.977 0 0 1-1.768 3.02 3 3 0 0 1-4.056-1.791 2.96 2.96 0 0 1-.138-1.229Zm4.679 0c0-1.366-.615-2.166-1.696-2.166-1.084 0-1.694.8-1.694 2.166 0 1.377.61 2.17 1.694 2.17 1.081 0 1.696-.798 1.696-2.17Zm2.955-3.149h1.201v1.001h.093a1.89 1.89 0 0 1 1.887-1.123 2.063 2.063 0 0 1 1.659.648c.21.225.367.494.459.788.091.294.115.604.07.909v4.08h-1.247v-3.768c0-1.013-.442-1.517-1.365-1.517a1.454 1.454 0 0 0-1.441.983 1.44 1.44 0 0 0-.068.615v3.688h-1.248v-6.304Zm12.421-1.57v1.599h1.369v1.047h-1.369v3.242c0 .66.273.95.894.95a3.96 3.96 0 0 0 .475-.03v1.037c-.224.04-.451.061-.678.064-1.388 0-1.94-.487-1.94-1.702v-3.56h-1.004V14.3h1.004v-1.598h1.249Zm3.071-.891h1.237v3.474h.099a1.942 1.942 0 0 1 1.927-1.13 2.088 2.088 0 0 1 2.099 1.448c.093.292.119.6.079.903v4.07h-1.249v-3.763c0-1.007-.471-1.517-1.352-1.517a1.48 1.48 0 0 0-1.51.967 1.471 1.471 0 0 0-.082.631v3.682h-1.248v-8.765Zm12.718 7.063a2.56 2.56 0 0 1-2.739 1.823 2.875 2.875 0 0 1-2.822-2.026 2.85 2.85 0 0 1-.098-1.227 2.903 2.903 0 0 1 1.702-3.041 2.92 2.92 0 0 1 1.212-.253c1.759 0 2.821 1.198 2.821 3.178v.434h-4.464v.07a1.654 1.654 0 0 0 .441 1.274 1.667 1.667 0 0 0 1.242.532 1.52 1.52 0 0 0 1.504-.764h1.201Zm-4.389-2.032h3.194a1.521 1.521 0 0 0-1.557-1.633 1.62 1.62 0 0 0-1.518 1.005c-.081.2-.121.413-.118.628h-.001Z" fill="#fff"/></g><defs><clipPath id="a"><path fill="#fff" d="M0 0h168v56H0z"/></clipPath></defs></svg>