<svg width="189" height="56" fill="none" xmlns="http://www.w3.org/2000/svg"><g clip-path="url(#a)"><path fill-rule="evenodd" clip-rule="evenodd" d="M181.997 56H7.003C3.143 56 0 52.844 0 49V7c0-3.858 3.143-7 7.003-7h174.994C185.853 0 189 3.142 189 7v42c0 3.844-3.147 7-7.003 7Z" fill="#000"/><path fill-rule="evenodd" clip-rule="evenodd" d="M181.997 1.12c3.237 0 5.887 2.644 5.887 5.88v42a5.888 5.888 0 0 1-5.887 5.88H7.003c-3.237 0-5.887-2.644-5.887-5.88V7a5.888 5.888 0 0 1 5.887-5.88h174.994Zm0-1.12H7.003C3.143 0 0 3.156 0 7v42c0 3.858 3.143 7 7.003 7h174.994c3.856 0 7.003-3.142 7.003-7V7c0-3.844-3.147-7-7.003-7Z" fill="#A6A6A6"/><path d="M99.566 18.524c-1.262 0-2.326-.443-3.168-1.316a4.493 4.493 0 0 1-1.279-3.212c0-1.274.431-2.353 1.28-3.208.838-.873 1.901-1.316 3.163-1.316 1.249 0 2.313.443 3.168 1.316.848.883 1.28 1.962 1.28 3.208-.014 1.278-.446 2.357-1.28 3.209-.838.88-1.902 1.32-3.164 1.32Zm-37.554 0c-1.235 0-2.306-.436-3.182-1.298-.869-.86-1.31-1.945-1.31-3.226s.441-2.367 1.31-3.226c.86-.862 1.93-1.299 3.182-1.299.612 0 1.206.122 1.776.37.56.241 1.016.57 1.353.97l.083.102-.942.929-.097-.116c-.532-.635-1.245-.946-2.187-.946-.842 0-1.575.3-2.18.894-.609.597-.918 1.38-.918 2.325 0 .947.31 1.729.918 2.325a3.016 3.016 0 0 0 2.18.894c.897 0 1.651-.3 2.239-.894.348-.349.563-.837.64-1.455h-3.022v-1.306h4.319l.017.119c.031.22.063.447.063.656 0 1.204-.362 2.179-1.078 2.898-.814.852-1.878 1.285-3.164 1.285Zm49.932-.184h-1.332l-4.078-6.554.035 1.18v5.37h-1.332V9.66h1.519l.042.067 3.835 6.172-.035-1.176V9.66h1.346v8.68Zm-22.385 0H88.21v-7.374h-2.34V9.66h6.026v1.306h-2.34v7.374h.003Zm-4.787 0h-1.346V9.66h1.346v8.68Zm-7.563 0h-1.345v-7.374h-2.34V9.66h6.025v1.306h-2.34v7.374Zm-4.537-.014h-5.16V9.66h5.16v1.306h-3.81v2.381H72.3v1.292h-3.44v2.38h3.811v1.307Zm24.714-2.015a2.971 2.971 0 0 0 2.18.908c.873 0 1.585-.297 2.18-.908.591-.593.89-1.372.89-2.311 0-.94-.299-1.721-.886-2.311a2.98 2.98 0 0 0-2.18-.908c-.873 0-1.586.297-2.177.908-.591.593-.89 1.372-.89 2.31 0 .94.295 1.722.883 2.312Z" fill="#fff"/><path fill-rule="evenodd" clip-rule="evenodd" d="M94.993 30.458c-3.286 0-5.95 2.503-5.95 5.956 0 3.421 2.681 5.956 5.95 5.956 3.285 0 5.949-2.52 5.949-5.956 0-3.453-2.663-5.956-5.95-5.956Zm0 9.552c-1.798 0-3.345-1.494-3.345-3.61 0-2.147 1.55-3.61 3.345-3.61 1.797 0 3.345 1.463 3.345 3.61.003 2.13-1.548 3.61-3.345 3.61Zm-12.98-9.552c-3.285 0-5.949 2.503-5.949 5.956 0 3.421 2.681 5.956 5.95 5.956 3.285 0 5.948-2.52 5.948-5.956 0-3.453-2.666-5.956-5.949-5.956Zm0 9.552c-1.797 0-3.345-1.494-3.345-3.61 0-2.147 1.551-3.61 3.345-3.61 1.798 0 3.345 1.463 3.345 3.61 0 2.13-1.547 3.61-3.345 3.61ZM66.57 32.277v2.52h6.025c-.184 1.414-.65 2.458-1.363 3.174-.883.887-2.246 1.85-4.648 1.85-3.703 0-6.6-3.002-6.6-6.72s2.897-6.721 6.6-6.721c1.999 0 3.456.793 4.537 1.805l1.78-1.787c-1.502-1.446-3.501-2.553-6.303-2.553-5.08 0-9.343 4.155-9.343 9.242 0 5.1 4.26 9.241 9.343 9.241 2.743 0 4.801-.9 6.428-2.597 1.659-1.666 2.184-4.015 2.184-5.911 0-.59-.045-1.12-.14-1.571h-8.504c.004-.004.004.028.004.028Zm63.172 1.962c-.497-1.337-1.999-3.795-5.079-3.795-3.053 0-5.591 2.412-5.591 5.956 0 3.345 2.51 5.956 5.886 5.956 2.712 0 4.291-1.665 4.941-2.643l-2.013-1.354c-.668.995-1.596 1.647-2.914 1.647-1.332 0-2.263-.607-2.882-1.805l7.931-3.299c0 .004-.279-.663-.279-.663Zm-8.087 1.99c-.063-2.3 1.78-3.47 3.098-3.47 1.04 0 1.905.513 2.201 1.26l-5.299 2.21Zm-6.443 5.77h2.604V24.503h-2.604V42Zm-4.276-10.218h-.094c-.588-.702-1.704-1.337-3.13-1.337-2.958 0-5.684 2.615-5.684 5.973 0 3.345 2.712 5.929 5.684 5.929 1.409 0 2.542-.64 3.13-1.355h.094v.855c0 2.273-1.21 3.499-3.161 3.499-1.596 0-2.587-1.152-2.99-2.116l-2.264.95c.651 1.57 2.386 3.515 5.251 3.515 3.052 0 5.639-1.805 5.639-6.207V30.8h-2.461v.981h-.014Zm-2.991 8.229c-1.797 0-3.299-1.508-3.299-3.593 0-2.101 1.502-3.623 3.299-3.623 1.781 0 3.161 1.54 3.161 3.623.017 2.085-1.377 3.593-3.161 3.593Zm33.991-15.508h-6.227V42h2.604v-6.627h3.627c2.882 0 5.716-2.098 5.716-5.428 0-3.331-2.824-5.443-5.72-5.443Zm.077 8.428h-3.703v-6.005h3.703c1.95 0 3.052 1.616 3.052 3.002 0 1.372-1.116 3.003-3.052 3.003Zm16.081-2.504c-1.892 0-3.843.842-4.649 2.675l2.309.963c.497-.963 1.408-1.291 2.371-1.291 1.349 0 2.712.81 2.743 2.255v.185c-.466-.265-1.488-.67-2.712-.67-2.493 0-5.021 1.368-5.021 3.934 0 2.35 2.045 3.858 4.322 3.858 1.749 0 2.712-.792 3.314-1.71h.094v1.354h2.51v-6.703c0-3.121-2.309-4.85-5.281-4.85Zm-.327 9.584c-.852 0-2.045-.419-2.045-1.494 0-1.355 1.488-1.868 2.757-1.868 1.148 0 1.69.248 2.372.59a3.14 3.14 0 0 1-3.084 2.772Zm14.766-9.21-2.99 7.59h-.094l-3.098-7.59h-2.802l4.649 10.61-2.65 5.897h2.712l7.152-16.507h-2.879ZM149.091 42h2.604V24.502h-2.604V42Z" fill="#fff"/><path fill-rule="evenodd" clip-rule="evenodd" d="M14.546 10.547c-.403.437-.636 1.103-.636 1.976V43.48c0 .873.233 1.54.65 1.959l.108.094 17.274-17.345v-.387L14.654 10.453l-.108.094Z" fill="#fff" stroke="#000" stroke-width="1.5"/><path fill-rule="evenodd" clip-rule="evenodd" d="m37.691 33.987-5.761-5.785v-.405l5.761-5.785.125.077 6.815 3.89c1.95 1.103 1.95 2.925 0 4.042l-6.815 3.89-.125.076Z" fill="#fff" stroke="#000" stroke-width="1.5"/><path fill-rule="evenodd" clip-rule="evenodd" d="M37.815 33.91 31.928 28 14.547 45.453c.636.684 1.704.761 2.896.094l20.372-11.636Zm0-11.82L17.443 10.47c-1.192-.684-2.263-.59-2.896.095L31.928 28l5.887-5.91Z" fill="#fff" stroke="#000" stroke-width="1.5"/><path opacity=".2" fill-rule="evenodd" clip-rule="evenodd" d="M37.691 33.785 17.46 45.327c-1.13.653-2.139.608-2.789.014l-.107.108.107.095c.65.59 1.659.639 2.789-.014l20.37-11.62-.139-.125Z" fill="#000"/><path opacity=".12" fill-rule="evenodd" clip-rule="evenodd" d="m44.63 29.819-6.958 3.966.125.126 6.815-3.89c.977-.558 1.457-1.291 1.457-2.021-.06.67-.557 1.306-1.44 1.819Z" fill="#000"/><path opacity=".25" fill-rule="evenodd" clip-rule="evenodd" d="M17.443 10.673 44.629 26.18c.883.5 1.38 1.152 1.457 1.819 0-.73-.48-1.463-1.457-2.021L17.443 10.47c-1.95-1.12-3.533-.185-3.533 2.053v.203c0-2.242 1.582-3.16 3.533-2.053Z" fill="#fff"/></g><defs><clipPath id="a"><path fill="#fff" d="M0 0h189v56H0z"/></clipPath></defs></svg>