<svg width="69" height="24" fill="none" xmlns="http://www.w3.org/2000/svg"><g clip-path="url(#a)" fill="#000"><path d="M2.21.037C1.606.135 1.143.362.744.759A2.513 2.513 0 0 0 .05 2c-.05.22-.063.707-.024.95.039.235.148.557.258.763A2.56 2.56 0 0 0 1.75 4.941c.28.091.434.114.795.114.25 0 .362-.007.477-.031a2.57 2.57 0 0 0 1.277-.66c.381-.36.62-.786.74-1.314a3.022 3.022 0 0 0 0-1.017A2.505 2.505 0 0 0 3.908.413 2.537 2.537 0 0 0 2.943.05 4.158 4.158 0 0 0 2.21.037Zm7.014 0c-.394.063-.75.19-1.032.369a2.515 2.515 0 0 0-.761 3.53c.373.563.959.95 1.646 1.088.244.049.75.043.993-.01.441-.097.673-.21 1.171-.566a2.468 2.468 0 0 1 1.445-.457c.595 0 1.055.161 1.597.56.321.238.64.382 1.023.464.26.056.772.056 1.031 0 .51-.11.924-.333 1.286-.693a2.48 2.48 0 0 0 .702-1.295 2.858 2.858 0 0 0-.002-.973 2.44 2.44 0 0 0-.707-1.296 2.515 2.515 0 0 0-1.273-.69 3.876 3.876 0 0 0-.87-.028 2.673 2.673 0 0 0-.906.303c-.067.04-.215.136-.326.215a2.623 2.623 0 0 1-.99.459 2.877 2.877 0 0 1-.98.026 2.626 2.626 0 0 1-1.04-.418c-.552-.384-.813-.5-1.274-.574a4.158 4.158 0 0 0-.733-.014ZM37.919.14c-.938.163-1.663.842-1.901 1.781-.053.203-.065.674-.026.903.166.968.888 1.704 1.87 1.91.239.05.634.052.878.006a2.35 2.35 0 0 0 1.81-1.554c.086-.25.12-.467.12-.747 0-.623-.225-1.172-.66-1.618a2.37 2.37 0 0 0-1.309-.683 3.163 3.163 0 0 0-.782.002Z"/><path d="M30.834.903c-.245.026-.568.1-.84.189-1.134.369-2.032 1.226-2.385 2.275-.152.455-.175.678-.175 1.723v.831h-2.102v3.692h2.067v9.484h4.133V9.562l2.329.003 2.326.006.005 4.763.004 4.764h4.08l-.003-6.584-.006-6.583-4.384-.005-4.386-.004V5.54c0-.438.02-.557.116-.756.089-.175.269-.355.444-.445.233-.115.23-.115 1.441-.115h1.09V.882l-1.805.002c-.995.001-1.87.01-1.949.019Zm16.209 4.786a5.811 5.811 0 0 0-1.636.31 5.815 5.815 0 0 0-2.305 1.438c-1.157 1.174-1.72 2.742-1.67 4.644.057 2.13.674 3.806 1.811 4.936 1.027 1.017 2.364 1.484 3.95 1.382.89-.057 1.583-.22 2.208-.518.474-.225.91-.553 1.156-.864l.074-.095-.005 1.119-.006 1.118-.042.122c-.255.756-.924 1.21-1.949 1.32a5.82 5.82 0 0 1-.915 0c-.448-.055-.833-.19-1.15-.403-.25-.168-.553-.51-.658-.747l-.034-.073h-4.111v.059c0 .157.105.614.214.941a4.984 4.984 0 0 0 1.965 2.566c.86.57 1.863.904 3.139 1.046.339.039 1.53.054 1.94.026.79-.054 1.465-.168 2.082-.353.749-.222 1.427-.567 1.957-.99a5.34 5.34 0 0 0 .758-.776c.346-.46.597-.981.733-1.522.116-.462.108.119.108-7.503V5.939h-3.332l-.226.665c-.125.365-.231.665-.238.665a.382.382 0 0 1-.064-.072c-.156-.208-.638-.61-.991-.826-.783-.474-1.758-.716-2.763-.682Zm1.34 3.463c.36.052.748.208 1.05.421.186.131.474.413.61.595.273.37.455.786.554 1.265.036.177.04.252.04.613 0 .36-.004.435-.04.609a3.38 3.38 0 0 1-.528 1.226 3.276 3.276 0 0 1-.618.62 2.397 2.397 0 0 1-2.115.35 2.442 2.442 0 0 1-.618-.298 3.17 3.17 0 0 1-.745-.74 3.182 3.182 0 0 1-.51-2.182c.135-1.018.713-1.86 1.554-2.264.448-.216.892-.286 1.367-.216Zm12.914-3.456c-1.455.075-2.974.796-3.962 1.879a5.814 5.814 0 0 0-1.39 2.752c-.115.559-.133.763-.133 1.544 0 .778.016 1.002.117 1.61.332 2.014 1.279 3.513 2.735 4.33.492.277 1.128.478 1.759.56.61.08 1.434.042 2.128-.096 1.041-.206 1.898-.667 2.398-1.286l.056-.07.002 1.034c0 .648-.007 1.071-.02 1.137a1.636 1.636 0 0 1-.429.846c-.36.376-.88.593-1.598.668-.287.03-.878.01-1.1-.035a3.247 3.247 0 0 1-.654-.213c-.394-.195-.734-.517-.909-.858l-.06-.12H58.18c-1.634 0-2.058.005-2.058.02a5 5 0 0 0 1.374 2.868c1.012 1.036 2.406 1.607 4.259 1.749.305.022 1.35.022 1.67 0 1.866-.135 3.27-.651 4.26-1.565a4.392 4.392 0 0 0 1.282-2.266l.04-.168.004-7.04.006-7.037-1.662.003-1.663.006-.224.65a20.07 20.07 0 0 1-.233.66.617.617 0 0 1-.13-.128c-.379-.439-1.068-.899-1.693-1.128a5.305 5.305 0 0 0-2.115-.306Zm1.564 3.471c.34.07.708.233.982.438.081.06.231.196.334.3.519.533.803 1.212.84 2.01a3.214 3.214 0 0 1-.563 1.945 3.7 3.7 0 0 1-.62.63c-1.148.837-2.683.529-3.51-.703-.79-1.174-.66-2.85.293-3.855.415-.436.889-.691 1.452-.782a2.92 2.92 0 0 1 .792.017ZM2.289 7.636a2.563 2.563 0 0 0-1.486.67c-.37.345-.606.74-.735 1.237-.047.179-.055.238-.062.525-.01.366.011.536.103.83a2.548 2.548 0 0 0 2.69 1.762 2.586 2.586 0 0 0 1.318-.525 2.508 2.508 0 0 1 3.03-.061c.279.2.354.25.515.329a2.564 2.564 0 0 0 3.192-.748 2.509 2.509 0 0 0 .23-2.642 2.534 2.534 0 0 0-2.06-1.377c-.623-.056-1.206.112-1.763.508a2.788 2.788 0 0 1-1.083.493 3.23 3.23 0 0 1-.971.009 2.76 2.76 0 0 1-.975-.404c-.548-.38-.816-.504-1.254-.58a3.285 3.285 0 0 0-.69-.026Zm-.097 7.619A2.549 2.549 0 0 0 .044 17.25c-.048.2-.048.791-.002 1.007.11.504.334.913.701 1.279.384.38.83.614 1.362.709.228.04.64.04.873 0a2.596 2.596 0 0 0 1.538-.891 2.48 2.48 0 0 0 .567-1.701 2.423 2.423 0 0 0-.743-1.68 2.47 2.47 0 0 0-1.733-.735 2.702 2.702 0 0 0-.415.016Z"/></g><defs><clipPath id="a"><path fill="#fff" d="M0 0h69v24H0z"/></clipPath></defs></svg>