<svg width="80" height="80" fill="none" xmlns="http://www.w3.org/2000/svg"><g clip-path="url(#a)"><path d="M80 0H0v80h80V0Z" fill="#fff"/><path d="M30.59 6.4h-2.688v2.688h2.688V6.4Zm16.13 0h-2.69v2.688h2.688V6.4Zm5.374 0h-2.688v2.688h2.688V6.4Z" fill="#000"/><path d="M30.59 9.088h-2.688v2.688h2.688V9.088Zm5.375 0h-2.688v2.688h2.688V9.088Zm5.379 0h-2.688v2.688h2.688V9.088Zm10.75 0h-2.688v2.688h2.688V9.088ZM30.59 11.776h-2.688v2.688h2.688v-2.688Zm5.375 0h-2.688v2.688h2.688v-2.688Z" fill="#000"/><path d="M38.653 11.776h-2.688v2.688h2.688v-2.688Zm5.379 0h-2.688v2.688h2.688v-2.688Zm5.375 0h-2.688v2.688h2.688v-2.688Zm-13.442 2.688h-2.688v2.688h2.688v-2.688Zm8.067 0h-2.688v2.688h2.688v-2.688Zm8.062 0h-2.688v2.688h2.688v-2.688ZM30.59 17.152h-2.688v2.688h2.688v-2.688Zm2.688 0H30.59v2.688h2.688v-2.688Zm13.442 0h-2.69v2.688h2.688v-2.688Zm5.374 0h-2.688v2.688h2.688v-2.688ZM35.965 19.84h-2.688v2.688h2.688V19.84Zm8.067 0h-2.688v2.688h2.688V19.84Zm8.062 0h-2.688v2.688h2.688V19.84ZM30.59 22.528h-2.688v2.688h2.688v-2.688Zm5.375 0h-2.688v2.688h2.688v-2.688Zm5.379 0h-2.688v2.688h2.688v-2.688Zm5.376 0h-2.69v2.688h2.688v-2.688Zm5.374 0h-2.688v2.688h2.688v-2.688Zm-8.062 2.688h-2.688v2.688h2.688v-2.688Zm8.062 0h-2.688v2.688h2.688v-2.688ZM9.086 27.904H6.398v2.688h2.688v-2.688Zm8.063 0H14.46v2.688h2.688v-2.688Zm2.691 0h-2.688v2.688h2.688v-2.688Zm2.688 0H19.84v2.688h2.688v-2.688Z" fill="#000"/><path d="M25.215 27.904h-2.688v2.688h2.688v-2.688Zm2.688 0h-2.688v2.688h2.688v-2.688Z" fill="#000"/><path d="M30.59 27.904h-2.688v2.688h2.688v-2.688Zm8.063 0h-2.688v2.688h2.688v-2.688Zm8.067 0h-2.69v2.688h2.688v-2.688Zm5.374 0h-2.688v2.688h2.688v-2.688Z" fill="#000"/><path d="M54.782 27.904h-2.688v2.688h2.688v-2.688Zm8.066 0H60.16v2.688h2.688v-2.688Zm5.375 0h-2.688v2.688h2.688v-2.688Zm2.687 0h-2.687v2.688h2.688v-2.688Z" fill="#000"/><path d="M73.598 27.904H70.91v2.688h2.688v-2.688Zm-51.07 2.688H19.84v2.688h2.688v-2.688Zm5.375 0h-2.688v2.688h2.688v-2.688Zm8.062 0h-2.688v2.688h2.688v-2.688Zm8.067 0h-2.688v2.688h2.688v-2.688Z" fill="#000"/><path d="M46.72 30.592h-2.69v2.688h2.688v-2.688Z" fill="#000"/><path d="M49.407 30.592h-2.688v2.688h2.688v-2.688Zm5.375 0h-2.688v2.688h2.688v-2.688Zm5.378 0h-2.687v2.688h2.688v-2.688Z" fill="#000"/><path d="M62.848 30.592H60.16v2.688h2.688v-2.688Zm2.688 0h-2.688v2.688h2.688v-2.688Z" fill="#000"/><path d="M68.223 30.592h-2.688v2.688h2.688v-2.688Zm2.687 0h-2.687v2.688h2.688v-2.688ZM11.774 33.28H9.086v2.688h2.688V33.28Z" fill="#000"/><path d="M14.461 33.28h-2.688v2.688h2.688V33.28Z" fill="#000"/><path d="M17.149 33.28H14.46v2.688h2.688V33.28Zm8.066 0h-2.688v2.688h2.688V33.28Zm2.688 0h-2.688v2.688h2.688V33.28Zm10.75 0h-2.688v2.688h2.688V33.28Zm5.379 0h-2.688v2.688h2.688V33.28Zm5.375 0h-2.688v2.688h2.688V33.28Zm8.063 0h-2.69v2.688h2.688V33.28Zm2.69 0h-2.687v2.688h2.688V33.28Zm5.376 0h-2.688v2.688h2.688V33.28Zm8.062 0H70.91v2.688h2.688V33.28ZM9.086 35.968H6.398v2.688h2.688v-2.688Zm8.063 0H14.46v2.688h2.688v-2.688Zm5.379 0H19.84v2.688h2.688v-2.688Zm5.375 0h-2.688v2.688h2.688v-2.688Zm5.375 0H30.59v2.688h2.688v-2.688Z" fill="#000"/><path d="M35.965 35.968h-2.688v2.688h2.688v-2.688Zm5.379 0h-2.688v2.688h2.688v-2.688Zm5.376 0h-2.69v2.688h2.688v-2.688Zm5.374 0h-2.688v2.688h2.688v-2.688Zm8.066 0h-2.687v2.688h2.688v-2.688Zm5.376 0h-2.688v2.688h2.688v-2.688Z" fill="#000"/><path d="M68.223 35.968h-2.688v2.688h2.688v-2.688Zm2.687 0h-2.687v2.688h2.688v-2.688Z" fill="#000"/><path d="M73.598 35.968H70.91v2.688h2.688v-2.688Zm-59.137 2.688h-2.688v2.688h2.688v-2.688Zm5.379 0h-2.688v2.688h2.688v-2.688Zm2.688 0H19.84v2.688h2.688v-2.688Z" fill="#000"/><path d="M25.215 38.656h-2.688v2.688h2.688v-2.688Zm24.192 0h-2.688v2.688h2.688v-2.688Zm8.063 0h-2.69v2.688h2.688v-2.688Zm16.128 0H70.91v2.688h2.688v-2.688ZM9.086 41.344H6.398v2.688h2.688v-2.688Zm2.688 0H9.086v2.688h2.688v-2.688Zm8.066 0h-2.688v2.688h2.688v-2.688Zm2.688 0H19.84v2.688h2.688v-2.688Zm5.375 0h-2.688v2.688h2.688v-2.688Z" fill="#000"/><path d="M30.59 41.344h-2.688v2.688h2.688v-2.688Zm2.688 0H30.59v2.688h2.688v-2.688Z" fill="#000"/><path d="M35.965 41.344h-2.688v2.688h2.688v-2.688Zm5.379 0h-2.688v2.688h2.688v-2.688Zm5.376 0h-2.69v2.688h2.688v-2.688Z" fill="#000"/><path d="M49.407 41.344h-2.688v2.688h2.688v-2.688Z" fill="#000"/><path d="M52.094 41.344h-2.688v2.688h2.688v-2.688Z" fill="#000"/><path d="M54.782 41.344h-2.688v2.688h2.688v-2.688Zm8.066 0H60.16v2.688h2.688v-2.688Zm8.062 0h-2.687v2.688h2.688v-2.688ZM9.086 44.032H6.398v2.688h2.688v-2.688Zm2.688 0H9.086v2.688h2.688v-2.688Zm10.754 0H19.84v2.688h2.688v-2.688Z" fill="#000"/><path d="M25.215 44.032h-2.688v2.688h2.688v-2.688Zm10.75 0h-2.688v2.688h2.688v-2.688Zm8.067 0h-2.688v2.688h2.688v-2.688Z" fill="#000"/><path d="M46.72 44.032h-2.69v2.688h2.688v-2.688Z" fill="#000"/><path d="M49.407 44.032h-2.688v2.688h2.688v-2.688Z" fill="#000"/><path d="M52.094 44.032h-2.688v2.688h2.688v-2.688Z" fill="#000"/><path d="M54.782 44.032h-2.688v2.688h2.688v-2.688Z" fill="#000"/><path d="M57.47 44.032h-2.69v2.688h2.688v-2.688Zm5.378 0H60.16v2.688h2.688v-2.688Zm2.688 0h-2.688v2.688h2.688v-2.688Z" fill="#000"/><path d="M68.223 44.032h-2.688v2.688h2.688v-2.688Zm2.687 0h-2.687v2.688h2.688v-2.688Z" fill="#000"/><path d="M73.598 44.032H70.91v2.688h2.688v-2.688ZM9.086 46.72H6.398v2.688h2.688V46.72Zm8.063 0H14.46v2.688h2.688V46.72Zm2.691 0h-2.688v2.688h2.688V46.72Zm10.75 0h-2.688v2.688h2.688V46.72Zm2.688 0H30.59v2.688h2.688V46.72Z" fill="#000"/><path d="M35.965 46.72h-2.688v2.688h2.688V46.72Zm5.379 0h-2.688v2.688h2.688V46.72Zm10.75 0h-2.688v2.688h2.688V46.72Z" fill="#000"/><path d="M54.782 46.72h-2.688v2.688h2.688V46.72Zm5.378 0h-2.687v2.688h2.688V46.72Zm5.376 0h-2.688v2.688h2.688V46.72Z" fill="#000"/><path d="M68.223 46.72h-2.688v2.688h2.688V46.72Zm5.375 0H70.91v2.688h2.688V46.72ZM9.086 49.408H6.398v2.688h2.688v-2.688Zm5.375 0h-2.688v2.688h2.688v-2.688Zm5.379 0h-2.688v2.688h2.688v-2.688Zm5.375 0h-2.688v2.688h2.688v-2.688Zm8.063 0H30.59v2.688h2.688v-2.688Z" fill="#000"/><path d="M35.965 49.408h-2.688v2.688h2.688v-2.688Z" fill="#000"/><path d="M38.653 49.408h-2.688v2.688h2.688v-2.688Zm2.691 0h-2.688v2.688h2.688v-2.688Z" fill="#000"/><path d="M44.032 49.408h-2.688v2.688h2.688v-2.688Z" fill="#000"/><path d="M46.72 49.408h-2.69v2.688h2.688v-2.688Z" fill="#000"/><path d="M49.407 49.408h-2.688v2.688h2.688v-2.688Z" fill="#000"/><path d="M52.094 49.408h-2.688v2.688h2.688v-2.688Z" fill="#000"/><path d="M54.782 49.408h-2.688v2.688h2.688v-2.688Z" fill="#000"/><path d="M57.47 49.408h-2.69v2.688h2.688v-2.688Zm2.69 0h-2.687v2.688h2.688v-2.688Z" fill="#000"/><path d="M62.848 49.408H60.16v2.688h2.688v-2.688Zm5.375 0h-2.688v2.688h2.688v-2.688Zm2.687 0h-2.687v2.688h2.688v-2.688Zm-40.32 2.688h-2.688v2.688h2.688v-2.688Zm5.375 0h-2.688v2.688h2.688v-2.688Zm2.688 0h-2.688v2.688h2.688v-2.688Zm5.379 0h-2.688v2.688h2.688v-2.688Zm5.375 0h-2.688v2.688h2.688v-2.688Z" fill="#000"/><path d="M52.094 52.096h-2.688v2.688h2.688v-2.688Zm10.754 0H60.16v2.688h2.688v-2.688Zm5.375 0h-2.688v2.688h2.688v-2.688Zm2.687 0h-2.687v2.688h2.688v-2.688Zm-40.32 2.688h-2.688v2.688h2.688v-2.688Zm5.375 0h-2.688v2.688h2.688v-2.688Zm5.379 0h-2.688v2.688h2.688v-2.688Zm10.75 0h-2.688v2.688h2.688v-2.688Zm5.376 0h-2.69v2.688h2.688v-2.688Zm5.378 0H60.16v2.688h2.688v-2.688Zm10.75 0H70.91v2.688h2.688v-2.688ZM30.59 57.472h-2.688v2.688h2.688v-2.688Zm2.688 0H30.59v2.688h2.688v-2.688Z" fill="#000"/><path d="M35.965 57.472h-2.688v2.688h2.688v-2.688Z" fill="#000"/><path d="M38.653 57.472h-2.688v2.688h2.688v-2.688Zm5.379 0h-2.688v2.688h2.688v-2.688Zm5.375 0h-2.688v2.688h2.688v-2.688Z" fill="#000"/><path d="M52.094 57.472h-2.688v2.688h2.688v-2.688Zm10.754 0H60.16v2.688h2.688v-2.688ZM30.59 60.16h-2.688v2.688h2.688V60.16Zm2.688 0H30.59v2.688h2.688V60.16Z" fill="#000"/><path d="M35.965 60.16h-2.688v2.688h2.688V60.16Z" fill="#000"/><path d="M38.653 60.16h-2.688v2.688h2.688V60.16Zm5.379 0h-2.688v2.688h2.688V60.16Zm5.375 0h-2.688v2.688h2.688V60.16Z" fill="#000"/><path d="M52.094 60.16h-2.688v2.688h2.688V60.16Z" fill="#000"/><path d="M54.782 60.16h-2.688v2.688h2.688V60.16Z" fill="#000"/><path d="M57.47 60.16h-2.69v2.688h2.688V60.16Zm2.69 0h-2.687v2.688h2.688V60.16Z" fill="#000"/><path d="M62.848 60.16H60.16v2.688h2.688V60.16Zm8.062 0h-2.687v2.688h2.688V60.16Z" fill="#000"/><path d="M73.598 60.16H70.91v2.688h2.688V60.16ZM30.59 62.848h-2.688v2.688h2.688v-2.688Zm10.754 0h-2.688v2.688h2.688v-2.688Z" fill="#000"/><path d="M44.032 62.848h-2.688v2.688h2.688v-2.688Z" fill="#000"/><path d="M46.72 62.848h-2.69v2.688h2.688v-2.688Z" fill="#000"/><path d="M49.407 62.848h-2.688v2.688h2.688v-2.688Z" fill="#000"/><path d="M52.094 62.848h-2.688v2.688h2.688v-2.688Zm5.376 0h-2.69v2.688h2.688v-2.688Zm13.44 0h-2.687v2.688h2.688v-2.688Z" fill="#000"/><path d="M73.598 62.848H70.91v2.688h2.688v-2.688Zm-40.32 2.688H30.59v2.688h2.688v-2.688Zm5.375 0h-2.688v2.688h2.688v-2.688Zm5.379 0h-2.688v2.688h2.688v-2.688Zm5.375 0h-2.688v2.688h2.688v-2.688Zm5.375 0h-2.688v2.688h2.688v-2.688Zm8.066 0H60.16v2.688h2.688v-2.688Zm2.688 0h-2.688v2.688h2.688v-2.688Z" fill="#000"/><path d="M68.223 65.536h-2.688v2.688h2.688v-2.688Zm2.687 0h-2.687v2.688h2.688v-2.688Z" fill="#000"/><path d="M73.598 65.536H70.91v2.688h2.688v-2.688Zm-34.945 2.688h-2.688v2.688h2.688v-2.688Zm2.691 0h-2.688v2.688h2.688v-2.688Z" fill="#000"/><path d="M44.032 68.224h-2.688v2.688h2.688v-2.688Zm16.128 0h-2.687v2.688h2.688v-2.688Z" fill="#000"/><path d="M62.848 68.224H60.16v2.688h2.688v-2.688Zm5.375 0h-2.688v2.688h2.688v-2.688Zm2.687 0h-2.687v2.688h2.688v-2.688Z" fill="#000"/><path d="M73.598 68.224H70.91v2.688h2.688v-2.688ZM30.59 70.912h-2.688V73.6h2.688v-2.688Zm8.063 0h-2.688V73.6h2.688v-2.688Zm2.691 0h-2.688V73.6h2.688v-2.688Z" fill="#000"/><path d="M44.032 70.912h-2.688V73.6h2.688v-2.688Zm8.062 0h-2.688V73.6h2.688v-2.688Zm2.688 0h-2.688V73.6h2.688v-2.688Zm10.754 0h-2.688V73.6h2.688v-2.688Zm8.062 0H70.91V73.6h2.688v-2.688ZM22.392 6.4H6.398v18.816h18.816V6.4h-2.822Zm0 15.994H9.221V9.222h13.171v13.172ZM70.775 6.4H54.78v18.816h18.816V6.4h-2.822Zm0 15.994H57.604V9.222h13.17v13.172Zm-48.383 32.39H6.398V73.6h18.816V54.784h-2.822Zm0 15.994H9.221V57.606h13.171v13.172Z" fill="#000"/><path d="M19.837 11.776h-8.064v8.064h8.064v-8.064Zm48.387 0H60.16v8.064h8.064v-8.064ZM19.837 60.16h-8.064v8.064h8.064V60.16Z" fill="#000"/></g><rect x=".75" y=".75" width="78.5" height="78.5" rx="7.25" stroke="#000" stroke-width="1.5"/><defs><clipPath id="a"><rect width="80" height="80" rx="8" fill="#fff"/></clipPath></defs></svg>