<svg width="168" height="56" viewBox="0 0 168 56" fill="none" xmlns="http://www.w3.org/2000/svg">
<g clip-path="url(#clip0_2297_11959)">
<path d="M154.622 5.99297e-05H13.386C12.8712 5.99297e-05 12.3626 5.99298e-05 11.8491 0.00285993C11.4193 0.00565993 10.9929 0.0137939 10.559 0.0206399C9.61624 0.0317025 8.67574 0.114407 7.74562 0.268034C6.81682 0.425006 5.91711 0.720942 5.07692 1.14583C4.23776 1.57432 3.471 2.13109 2.80445 2.79596C2.1344 3.45895 1.57586 4.22528 1.15031 5.06548C0.723586 5.90401 0.427694 6.80257 0.272854 7.73013C0.116542 8.65652 0.0324285 9.59359 0.0212695 10.5329C0.00824107 10.9622 0.00686522 11.3928 0 11.8221V44.1821C0.00686522 44.6168 0.00824107 45.0379 0.0212695 45.4728C0.0324319 46.4121 0.116545 47.3491 0.272854 48.2754C0.427266 49.2035 0.723176 50.1026 1.15031 50.9414C1.57567 51.7789 2.13428 52.5422 2.80445 53.2015C3.46847 53.8693 4.23573 54.4264 5.07692 54.8516C5.9171 55.2777 6.81671 55.5754 7.74562 55.7348C8.67589 55.8872 9.6163 55.9699 10.559 55.9823C10.9929 55.9918 11.4193 55.9973 11.8491 55.9973C12.3625 56.0001 12.8712 56.0001 13.386 56.0001H154.622C155.126 56.0001 155.639 56.0001 156.143 55.9973C156.571 55.9973 157.01 55.9918 157.438 55.9823C158.379 55.9706 159.317 55.8878 160.246 55.7348C161.177 55.5742 162.08 55.2766 162.924 54.8516C163.765 54.4262 164.531 53.8691 165.195 53.2015C165.863 52.5396 166.423 51.7769 166.854 50.9414C167.278 50.102 167.571 49.203 167.723 48.2754C167.88 47.349 167.967 46.4121 167.984 45.4728C167.989 45.0379 167.989 44.6168 167.989 44.1821C168 43.6735 168 43.1677 168 42.6508V13.3506C168 12.8379 168 12.3294 167.989 11.8221C167.989 11.3928 167.989 10.9622 167.984 10.5329C167.967 9.59345 167.88 8.65659 167.723 7.73008C167.57 6.80305 167.277 5.90456 166.854 5.06543C165.987 3.38133 164.613 2.0105 162.924 1.14571C162.08 0.721854 161.177 0.425997 160.246 0.267908C159.317 0.113604 158.379 0.0308708 157.438 0.0204439C157.01 0.0136119 156.571 0.00540793 156.143 0.00267793C155.639 -0.00012207 155.126 -0.00012207 154.622 -0.00012207V5.99297e-05Z" fill="#A6A6A6"/>
<path d="M11.8569 54.775C11.4291 54.775 11.0117 54.7695 10.5873 54.76C9.70814 54.7486 8.83103 54.6722 7.96317 54.5317C7.15393 54.3927 6.36999 54.1341 5.63722 53.7646C4.91117 53.3981 4.24895 52.9176 3.67593 52.3414C3.09462 51.7719 2.61065 51.1115 2.2432 50.3863C1.87171 49.6563 1.61461 48.8738 1.48087 48.0662C1.33644 47.1983 1.2583 46.3208 1.24712 45.4412C1.23822 45.1459 1.22656 44.1628 1.22656 44.1628V11.8221C1.22656 11.8221 1.23897 10.8541 1.24719 10.5697C1.25789 9.69145 1.33558 8.81529 1.47958 7.9488C1.61357 7.13893 1.87086 6.35422 2.24256 5.62186C2.60865 4.8971 3.08994 4.23618 3.66774 3.66473C4.2449 3.08785 4.90924 2.60482 5.63653 2.23327C6.36762 1.86491 7.15007 1.6082 7.95768 1.47175C8.82839 1.32975 9.70855 1.25297 10.5908 1.24207L11.8576 1.22498H156.137L157.419 1.24276C158.294 1.25311 159.166 1.32921 160.028 1.47038C160.844 1.60854 161.635 1.86704 162.374 2.23737C163.831 2.98616 165.017 4.1708 165.765 5.62527C166.131 6.35258 166.384 7.13088 166.516 7.93376C166.662 8.80736 166.743 9.69041 166.76 10.5759C166.764 10.9723 166.764 11.3982 166.764 11.8221C166.775 12.3471 166.775 12.8468 166.775 13.3506V42.6507C166.775 43.1593 166.775 43.6556 166.764 44.156C166.764 44.6113 166.764 45.0283 166.759 45.4576C166.742 46.3272 166.662 47.1945 166.519 48.0525C166.388 48.8659 166.132 49.6545 165.761 50.3905C165.391 51.1078 164.909 51.7625 164.335 52.3304C163.761 52.9097 163.098 53.3931 162.37 53.7619C161.633 54.1343 160.843 54.3938 160.028 54.5317C159.161 54.673 158.283 54.7493 157.404 54.76C156.993 54.7695 156.562 54.775 156.144 54.775L154.622 54.7778L11.8569 54.775Z" fill="black"/>
<path d="M34.7744 28.421C34.7895 27.2525 35.1007 26.1067 35.6792 25.0904C36.2577 24.0741 37.0845 23.2202 38.0828 22.6081C37.4486 21.7049 36.612 20.9616 35.6393 20.4372C34.6666 19.9128 33.5847 19.6218 32.4795 19.5874C30.122 19.3406 27.8365 20.9941 26.6351 20.9941C25.4105 20.9941 23.5608 19.6119 21.569 19.6527C20.2807 19.6942 19.0251 20.0678 17.9246 20.7371C16.8241 21.4064 15.9162 22.3485 15.2894 23.4717C12.5742 28.1595 14.5995 35.049 17.2004 38.8383C18.5017 40.6937 20.0225 42.7664 22.0125 42.6929C23.9599 42.6123 24.6872 41.4546 27.0378 41.4546C29.3666 41.4546 30.0489 42.6929 32.0793 42.6461C34.1689 42.6123 35.4854 40.7824 36.7411 38.9093C37.676 37.5872 38.3955 36.126 38.8728 34.5798C37.6588 34.0678 36.6228 33.2108 35.894 32.1156C35.1652 31.0203 34.7758 29.7354 34.7744 28.421Z" fill="white"/>
<path d="M30.9408 17.0952C32.0801 15.7314 32.6414 13.9783 32.5055 12.2084C30.7648 12.3907 29.157 13.2203 28.0022 14.5318C27.4377 15.1726 27.0053 15.918 26.7297 16.7254C26.4542 17.5329 26.341 18.3866 26.3966 19.2378C27.2672 19.2467 28.1285 19.0585 28.9156 18.6874C29.7028 18.3163 30.3952 17.7719 30.9408 17.0952Z" fill="white"/>
<path d="M59.3919 37.9955H52.7465L51.1507 42.6945H48.3359L54.6303 25.3093H57.5547L63.8491 42.6945H60.9864L59.3919 37.9955ZM53.4348 35.8271H58.7023L56.1056 28.201H56.0329L53.4348 35.8271Z" fill="white"/>
<path d="M77.442 36.3575C77.442 40.2964 75.3278 42.8271 72.1375 42.8271C71.3293 42.8692 70.5255 42.6836 69.8182 42.2914C69.111 41.8992 68.5287 41.3163 68.1382 40.6095H68.0778V46.8876H65.4688V30.0192H67.9942V32.1274H68.0422C68.4507 31.424 69.0428 30.8441 69.7554 30.4495C70.4681 30.055 71.2747 29.8604 72.0895 29.8866C75.3154 29.8866 77.442 32.4296 77.442 36.3575ZM74.7602 36.3575C74.7602 33.7913 73.4303 32.1042 71.4012 32.1042C69.4077 32.1042 68.0669 33.8269 68.0669 36.3575C68.0669 38.9114 69.4077 40.6218 71.4012 40.6218C73.4303 40.6218 74.7602 38.947 74.7602 36.3575Z" fill="white"/>
<path d="M91.4341 36.3576C91.4341 40.2965 89.32 42.8272 86.1296 42.8272C85.3215 42.8693 84.5177 42.6837 83.8104 42.2915C83.1031 41.8993 82.5209 41.3164 82.1304 40.6096H82.07V46.8877H79.4609V30.0193H81.9864V32.1275H82.0343C82.4428 31.4241 83.0349 30.8442 83.7476 30.4497C84.4603 30.0551 85.2669 29.8605 86.0816 29.8867C89.3077 29.8867 91.4341 32.4297 91.4341 36.3576ZM88.7524 36.3576C88.7524 33.7914 87.4225 32.1043 85.3934 32.1043C83.3999 32.1043 82.0591 33.827 82.0591 36.3576C82.0591 38.9115 83.3999 40.6219 85.3934 40.6219C87.4225 40.6219 88.7524 38.9471 88.7524 36.3576H88.7524Z" fill="white"/>
<path d="M100.679 37.8505C100.872 39.5746 102.551 40.7065 104.847 40.7065C107.046 40.7065 108.628 39.5745 108.628 38.02C108.628 36.6706 107.674 35.8626 105.414 35.3089L103.155 34.7661C99.9534 33.995 98.4671 32.502 98.4671 30.0794C98.4671 27.0798 101.089 25.0194 104.811 25.0194C108.495 25.0194 111.02 27.0798 111.105 30.0794H108.471C108.314 28.3444 106.876 27.2972 104.774 27.2972C102.672 27.2972 101.234 28.3567 101.234 29.8989C101.234 31.128 102.152 31.8513 104.4 32.4049L106.32 32.8752C109.897 33.7188 111.384 35.1516 111.384 37.6946C111.384 40.9471 108.785 42.9842 104.653 42.9842C100.787 42.9842 98.1765 40.9949 98.0078 37.8504L100.679 37.8505Z" fill="white"/>
<path d="M117.016 27.0197V30.0193H119.434V32.0796H117.016V39.0673C117.016 40.1529 117.5 40.6587 118.563 40.6587C118.85 40.6537 119.136 40.6336 119.421 40.5985V42.6466C118.943 42.7356 118.458 42.7759 117.972 42.7669C115.399 42.7669 114.395 41.803 114.395 39.3448V32.0796H112.547V30.0193H114.395V27.0197H117.016Z" fill="white"/>
<path d="M120.832 36.3575C120.832 32.3695 123.187 29.8634 126.86 29.8634C130.546 29.8634 132.89 32.3694 132.89 36.3575C132.89 40.3566 130.558 42.8517 126.86 42.8517C123.164 42.8517 120.832 40.3566 120.832 36.3575ZM130.232 36.3575C130.232 33.6218 128.975 32.0072 126.86 32.0072C124.746 32.0072 123.49 33.6341 123.49 36.3575C123.49 39.1042 124.746 40.7066 126.86 40.7066C128.975 40.7066 130.232 39.1042 130.232 36.3575H130.232Z" fill="white"/>
<path d="M135.039 30.0192H137.527V32.1766H137.588C137.756 31.5028 138.152 30.9074 138.709 30.4903C139.266 30.0733 139.949 29.8601 140.645 29.8866C140.946 29.8856 141.246 29.9181 141.539 29.9837V32.4173C141.16 32.3016 140.764 32.2485 140.367 32.2601C139.988 32.2447 139.61 32.3114 139.259 32.4554C138.908 32.5994 138.593 32.8175 138.335 33.0945C138.077 33.3716 137.881 33.7011 137.763 34.0604C137.644 34.4197 137.605 34.8004 137.648 35.1763V42.6944H135.039L135.039 30.0192Z" fill="white"/>
<path d="M153.571 38.9716C153.22 41.2726 150.973 42.8517 148.098 42.8517C144.401 42.8517 142.105 40.3812 142.105 36.4177C142.105 32.4419 144.413 29.8634 147.989 29.8634C151.505 29.8634 153.717 32.2724 153.717 36.1155V37.007H144.739V37.1642C144.698 37.6307 144.756 38.1006 144.911 38.5428C145.066 38.9849 145.313 39.3892 145.636 39.7288C145.96 40.0684 146.352 40.3354 146.787 40.5123C147.222 40.6891 147.689 40.7716 148.159 40.7544C148.775 40.812 149.394 40.6696 149.923 40.3484C150.452 40.0272 150.862 39.5443 151.094 38.9716L153.571 38.9716ZM144.752 35.1886H151.106C151.13 34.7692 151.066 34.3494 150.919 33.9557C150.772 33.562 150.545 33.2029 150.252 32.9008C149.959 32.5987 149.607 32.3603 149.218 32.2004C148.828 32.0405 148.41 31.9626 147.989 31.9716C147.564 31.9691 147.142 32.0505 146.749 32.2111C146.356 32.3718 145.999 32.6085 145.698 32.9075C145.397 33.2066 145.158 33.5622 144.996 33.9537C144.834 34.3452 144.75 34.7649 144.752 35.1886V35.1886Z" fill="white"/>
<path d="M53.104 12.2233C53.651 12.1842 54.1998 12.2666 54.711 12.4646C55.2222 12.6626 55.683 12.9713 56.06 13.3684C56.4371 13.7654 56.7211 14.241 56.8916 14.7608C57.062 15.2806 57.1146 15.8316 57.0457 16.3741C57.0457 19.0429 55.5992 20.5769 53.104 20.5769H50.0781V12.2233H53.104ZM51.3792 19.3955H52.9586C53.3495 19.4188 53.7407 19.3549 54.1036 19.2085C54.4666 19.062 54.7923 18.8367 55.0569 18.5489C55.3215 18.2611 55.5185 17.9181 55.6334 17.5448C55.7483 17.1716 55.7783 16.7774 55.7212 16.3911C55.7742 16.0064 55.7411 15.6147 55.6244 15.2442C55.5077 14.8736 55.3103 14.5334 55.0463 14.2479C54.7823 13.9624 54.4582 13.7387 54.0972 13.5928C53.7363 13.4468 53.3475 13.3823 52.9586 13.4038H51.3792V19.3955Z" fill="white"/>
<path d="M58.5141 17.4221C58.4744 17.0078 58.5219 16.5898 58.6536 16.1949C58.7854 15.8 58.9984 15.4369 59.2791 15.1289C59.5598 14.8209 59.902 14.5749 60.2837 14.4065C60.6653 14.2381 61.0781 14.1511 61.4954 14.1511C61.9127 14.1511 62.3255 14.2381 62.7071 14.4065C63.0888 14.5749 63.431 14.8209 63.7117 15.1289C63.9924 15.4369 64.2054 15.8 64.3372 16.1949C64.4689 16.5898 64.5164 17.0078 64.4767 17.4221C64.5172 17.8368 64.4702 18.2553 64.3388 18.6509C64.2074 19.0464 63.9945 19.4102 63.7137 19.7187C63.433 20.0273 63.0905 20.2739 62.7085 20.4426C62.3265 20.6114 61.9132 20.6986 61.4954 20.6986C61.0776 20.6986 60.6643 20.6114 60.2823 20.4426C59.9003 20.2739 59.5578 20.0273 59.2771 19.7187C58.9963 19.4102 58.7834 19.0464 58.652 18.6509C58.5206 18.2553 58.4736 17.8368 58.5141 17.4221ZM63.1934 17.4221C63.1934 16.0556 62.5778 15.2564 61.4975 15.2564C60.413 15.2564 59.8029 16.0556 59.8029 17.4221C59.8029 18.7995 60.413 19.5925 61.4975 19.5925C62.5778 19.5925 63.1934 18.794 63.1934 17.4221H63.1934Z" fill="white"/>
<path d="M72.404 20.5768H71.1098L69.8032 15.9338H69.7045L68.4034 20.5768H67.1215L65.3789 14.2727H66.6444L67.7768 19.0831H67.8701L69.1698 14.2727H70.3667L71.6664 19.0831H71.7651L72.8921 14.2727H74.1398L72.404 20.5768Z" fill="white"/>
<path d="M75.6055 14.2727H76.8065V15.2741H76.8997C77.0579 14.9144 77.3246 14.6129 77.6628 14.4116C78.001 14.2103 78.3937 14.1192 78.7863 14.151C79.0939 14.1279 79.4027 14.1742 79.69 14.2863C79.9772 14.3984 80.2355 14.5736 80.4456 14.7988C80.6557 15.0239 80.8124 15.2934 80.9039 15.5871C80.9955 15.8809 81.0196 16.1914 80.9744 16.4957V20.5767H79.7268V16.8081C79.7268 15.795 79.2853 15.2912 78.3626 15.2912C78.1538 15.2815 77.9453 15.317 77.7515 15.3951C77.5576 15.4733 77.3831 15.5923 77.2397 15.7441C77.0963 15.8958 76.9875 16.0767 76.9208 16.2742C76.8541 16.4718 76.831 16.6815 76.8531 16.8888V20.5768H75.6055L75.6055 14.2727Z" fill="white"/>
<path d="M82.9609 11.8118H84.2086V20.5768H82.9609V11.8118Z" fill="white"/>
<path d="M85.9438 17.422C85.904 17.0077 85.9516 16.5897 86.0834 16.1948C86.2152 15.7999 86.4282 15.4368 86.709 15.1288C86.9897 14.8208 87.3319 14.5748 87.7136 14.4064C88.0953 14.238 88.508 14.151 88.9254 14.151C89.3428 14.151 89.7555 14.238 90.1372 14.4064C90.5189 14.5748 90.8611 14.8208 91.1418 15.1288C91.4225 15.4368 91.6356 15.7999 91.7674 16.1948C91.8992 16.5897 91.9467 17.0077 91.907 17.422C91.9475 17.8368 91.9005 18.2554 91.769 18.6509C91.6376 19.0464 91.4246 19.4102 91.1438 19.7187C90.863 20.0273 90.5206 20.2739 90.1385 20.4426C89.7565 20.6114 89.3433 20.6985 88.9254 20.6985C88.5075 20.6985 88.0943 20.6114 87.7122 20.4426C87.3302 20.2739 86.9878 20.0273 86.707 19.7187C86.4262 19.4102 86.2132 19.0464 86.0818 18.6509C85.9503 18.2554 85.9033 17.8368 85.9438 17.422ZM90.6231 17.422C90.6231 16.0555 90.0075 15.2564 88.9271 15.2564C87.8426 15.2564 87.2326 16.0556 87.2326 17.4221C87.2326 18.7995 87.8427 19.5925 88.9271 19.5925C90.0075 19.5925 90.6231 18.794 90.6231 17.422H90.6231Z" fill="white"/>
<path d="M93.2227 18.794C93.2227 17.6592 94.07 17.005 95.574 16.912L97.2864 16.8136V16.2695C97.2864 15.6036 96.8449 15.2277 95.9921 15.2277C95.2957 15.2277 94.8131 15.4826 94.6746 15.9283H93.4667C93.5942 14.8455 94.6156 14.151 96.0497 14.151C97.6346 14.151 98.5285 14.9378 98.5285 16.2695V20.5768H97.3275V19.6908H97.2288C97.0284 20.0086 96.7471 20.2677 96.4135 20.4416C96.0799 20.6155 95.706 20.698 95.3299 20.6806C95.0645 20.7082 94.7963 20.6799 94.5425 20.5978C94.2887 20.5156 94.0551 20.3813 93.8565 20.2035C93.658 20.0258 93.499 19.8085 93.3898 19.5657C93.2806 19.3229 93.2237 19.06 93.2227 18.794ZM97.2864 18.2553V17.7282L95.7426 17.8267C94.872 17.8848 94.4771 18.1801 94.4771 18.7358C94.4771 19.3032 94.9707 19.6334 95.6494 19.6334C95.8483 19.6535 96.0491 19.6335 96.2401 19.5745C96.431 19.5156 96.6081 19.419 96.7609 19.2904C96.9136 19.1618 97.0388 19.0039 97.1291 18.8261C97.2194 18.6483 97.2729 18.4541 97.2864 18.2553Z" fill="white"/>
<path d="M100.168 17.422C100.168 15.4301 101.195 14.1681 102.792 14.1681C103.187 14.15 103.579 14.2443 103.923 14.4402C104.266 14.6361 104.546 14.9253 104.731 15.2741H104.824V11.8118H106.072V20.5768H104.876V19.5808H104.777C104.579 19.9273 104.288 20.2129 103.939 20.4068C103.589 20.6007 103.192 20.6954 102.792 20.6807C101.184 20.6808 100.168 19.4188 100.168 17.422ZM101.457 17.422C101.457 18.7592 102.089 19.5637 103.146 19.5637C104.197 19.5637 104.847 18.7475 104.847 17.4275C104.847 16.1136 104.191 15.2858 103.146 15.2858C102.096 15.2858 101.457 16.0959 101.457 17.422H101.457Z" fill="white"/>
<path d="M111.233 17.4221C111.193 17.0078 111.241 16.5898 111.372 16.1949C111.504 15.8 111.717 15.4369 111.998 15.1289C112.279 14.8209 112.621 14.5749 113.002 14.4065C113.384 14.2381 113.797 14.1511 114.214 14.1511C114.631 14.1511 115.044 14.2381 115.426 14.4065C115.808 14.5749 116.15 14.8209 116.43 15.1289C116.711 15.4369 116.924 15.8 117.056 16.1949C117.188 16.5898 117.235 17.0078 117.195 17.4221C117.236 17.8368 117.189 18.2553 117.058 18.6509C116.926 19.0464 116.713 19.4102 116.432 19.7187C116.152 20.0273 115.809 20.2739 115.427 20.4426C115.045 20.6114 114.632 20.6986 114.214 20.6986C113.796 20.6986 113.383 20.6114 113.001 20.4426C112.619 20.2739 112.277 20.0273 111.996 19.7187C111.715 19.4102 111.502 19.0464 111.371 18.6509C111.239 18.2553 111.192 17.8368 111.233 17.4221ZM115.912 17.4221C115.912 16.0556 115.297 15.2564 114.216 15.2564C113.132 15.2564 112.522 16.0556 112.522 17.4221C112.522 18.7995 113.132 19.5925 114.216 19.5925C115.297 19.5925 115.912 18.794 115.912 17.4221Z" fill="white"/>
<path d="M118.867 14.2727H120.068V15.2741H120.161C120.32 14.9144 120.586 14.6129 120.925 14.4116C121.263 14.2103 121.655 14.1192 122.048 14.151C122.356 14.1279 122.664 14.1742 122.952 14.2863C123.239 14.3984 123.497 14.5736 123.707 14.7988C123.917 15.0239 124.074 15.2934 124.166 15.5871C124.257 15.8809 124.281 16.1914 124.236 16.4957V20.5767H122.989V16.8081C122.989 15.795 122.547 15.2912 121.624 15.2912C121.415 15.2815 121.207 15.317 121.013 15.3951C120.819 15.4733 120.645 15.5923 120.501 15.7441C120.358 15.8958 120.249 16.0767 120.183 16.2742C120.116 16.4718 120.093 16.6815 120.115 16.8888V20.5768H118.867V14.2727Z" fill="white"/>
<path d="M131.288 12.7032V14.3015H132.657V15.3494H131.288V18.591C131.288 19.2514 131.561 19.5406 132.182 19.5406C132.341 19.54 132.5 19.5305 132.657 19.5118V20.5482C132.433 20.5881 132.206 20.6094 131.979 20.6117C130.591 20.6117 130.039 20.125 130.039 18.9096V15.3494H129.035V14.3014H130.039V12.7032H131.288Z" fill="white"/>
<path d="M134.359 11.8118H135.596V15.2858H135.695C135.861 14.9227 136.135 14.6195 136.48 14.4174C136.825 14.2153 137.224 14.1242 137.622 14.1565C137.928 14.1399 138.234 14.1908 138.518 14.3057C138.802 14.4206 139.057 14.5965 139.265 14.821C139.473 15.0454 139.629 15.3129 139.721 15.6043C139.814 15.8957 139.84 16.2038 139.8 16.5067V20.5768H138.551V16.8136C138.551 15.8067 138.08 15.2967 137.199 15.2967C136.984 15.2792 136.769 15.3086 136.567 15.3829C136.365 15.4571 136.182 15.5745 136.03 15.7267C135.879 15.879 135.762 16.0624 135.689 16.2642C135.616 16.466 135.588 16.6812 135.607 16.895V20.5768H134.359L134.359 11.8118Z" fill="white"/>
<path d="M147.077 18.8746C146.908 19.4508 146.54 19.9491 146.04 20.2826C145.539 20.616 144.936 20.7632 144.338 20.6984C143.921 20.7094 143.507 20.6298 143.125 20.4653C142.742 20.3008 142.4 20.0552 142.122 19.7456C141.845 19.436 141.638 19.0698 141.516 18.6725C141.394 18.2751 141.361 17.8561 141.418 17.4445C141.362 17.0317 141.396 16.6118 141.518 16.2133C141.639 15.8147 141.845 15.4468 142.121 15.1345C142.398 14.8222 142.738 14.5728 143.12 14.4031C143.501 14.2334 143.915 14.1474 144.332 14.151C146.091 14.151 147.153 15.3494 147.153 17.329V17.7631H142.689V17.8328C142.669 18.0642 142.698 18.297 142.774 18.5165C142.85 18.7359 142.971 18.9371 143.13 19.1072C143.288 19.2772 143.481 19.4123 143.695 19.5039C143.909 19.5954 144.139 19.6414 144.372 19.6388C144.671 19.6746 144.973 19.621 145.241 19.4849C145.509 19.3488 145.73 19.1363 145.876 18.8746L147.077 18.8746ZM142.688 16.843H145.882C145.897 16.6314 145.868 16.4189 145.797 16.2191C145.725 16.0193 145.613 15.8366 145.466 15.6828C145.32 15.529 145.142 15.4075 144.946 15.326C144.75 15.2446 144.538 15.205 144.325 15.2099C144.11 15.2072 143.896 15.2476 143.696 15.3287C143.496 15.4098 143.314 15.53 143.162 15.6822C143.009 15.8344 142.889 16.0155 142.807 16.2149C142.726 16.4142 142.686 16.6278 142.689 16.843H142.688Z" fill="white"/>
</g>
<defs>
<clipPath id="clip0_2297_11959">
<rect width="168" height="56" fill="white"/>
</clipPath>
</defs>
</svg>
