<svg width="189" height="56" viewBox="0 0 189 56" fill="none" xmlns="http://www.w3.org/2000/svg">
<g clip-path="url(#clip0_2297_11960)">
<path fill-rule="evenodd" clip-rule="evenodd" d="M181.997 56H7.00258C3.14316 56 0 52.8439 0 49V7C0 3.14214 3.14316 0 7.00258 0H181.997C185.853 0 189 3.14214 189 7V49C189 52.8439 185.853 56 181.997 56Z" fill="black"/>
<path fill-rule="evenodd" clip-rule="evenodd" d="M181.997 1.1207C185.234 1.1207 187.884 3.76359 187.884 7V49C187.884 52.2364 185.252 54.8793 181.997 54.8793H7.00258C3.76554 54.8793 1.1161 52.2364 1.1161 49V7C1.1161 3.76359 3.74815 1.1207 7.00258 1.1207H181.997ZM181.997 0H7.00258C3.14316 0 0 3.15611 0 7V49C0 52.8579 3.14316 56 7.00258 56H181.997C185.853 56 189 52.8579 189 49V7C189 3.15611 185.853 0 181.997 0Z" fill="#A6A6A6"/>
<path d="M99.566 18.5245C98.3039 18.5245 97.24 18.0812 96.3985 17.2083C95.5641 16.36 95.0982 15.1904 95.119 13.9964C95.119 12.7221 95.5502 11.6433 96.3985 10.7879C97.2365 9.91507 98.3004 9.47168 99.5625 9.47168C100.811 9.47168 101.875 9.91507 102.73 10.7879C103.578 11.6712 104.01 12.75 104.01 13.9964C103.996 15.2742 103.564 16.353 102.73 17.2048C101.892 18.0846 100.828 18.5245 99.566 18.5245ZM62.0117 18.5245C60.7774 18.5245 59.7065 18.0881 58.8303 17.2258C57.9611 16.3669 57.5195 15.2812 57.5195 13.9999C57.5195 12.7186 57.9611 11.6328 58.8303 10.7739C59.6891 9.91158 60.76 9.47517 62.0117 9.47517C62.6237 9.47517 63.2182 9.59737 63.7884 9.84525C64.3482 10.0861 64.8037 10.4143 65.141 10.8158L65.2244 10.9171L64.2822 11.8457L64.1848 11.7305C63.6528 11.0951 62.9401 10.7844 61.9978 10.7844C61.1564 10.7844 60.4228 11.0846 59.8178 11.6782C59.2093 12.2752 58.8999 13.0572 58.8999 14.0034C58.8999 14.9495 59.2093 15.7315 59.8178 16.3285C60.4228 16.9221 61.1564 17.2223 61.9978 17.2223C62.8949 17.2223 63.6494 16.9221 64.237 16.3285C64.5846 15.9794 64.8002 15.4906 64.8767 14.8727H61.8553V13.5669H66.1736L66.191 13.6856C66.2223 13.9056 66.2536 14.1325 66.2536 14.342C66.2536 15.5465 65.892 16.5206 65.1757 17.2398C64.3621 18.0916 63.2982 18.5245 62.0117 18.5245ZM111.944 18.3395H110.612L106.534 11.7864L106.569 12.9664V18.336H105.237V9.66021H106.756L106.798 9.72654L110.633 15.8991L110.598 14.7226V9.66021H111.944V18.3395ZM89.5594 18.3395H88.2104V10.9659H85.8704V9.66021H91.8959V10.9659H89.5559V18.3395H89.5594ZM84.7717 18.3395H83.4261V9.66021H84.7717V18.3395ZM77.2094 18.3395H75.8638V10.9659H73.5238V9.66021H79.5493V10.9659H77.2094V18.3395ZM72.672 18.3255H67.5122V9.66021H72.672V10.9659H68.8613V13.347H72.2999V14.6388H68.8613V17.0198H72.672V18.3255ZM97.386 16.3111C97.9875 16.9151 98.7177 17.2188 99.566 17.2188C100.439 17.2188 101.151 16.9221 101.746 16.3111C102.337 15.7176 102.636 14.939 102.636 13.9999C102.636 13.0607 102.337 12.2787 101.75 11.6886C101.148 11.0846 100.414 10.7809 99.5695 10.7809C98.6968 10.7809 97.984 11.0777 97.3929 11.6886C96.8019 12.2822 96.5028 13.0607 96.5028 13.9999C96.5028 14.939 96.7984 15.7211 97.386 16.3111Z" fill="white"/>
<path fill-rule="evenodd" clip-rule="evenodd" d="M94.9928 30.4578C91.707 30.4578 89.0437 32.961 89.0437 36.4139C89.0437 39.8354 91.7244 42.37 94.9928 42.37C98.2785 42.37 100.942 39.8493 100.942 36.4139C100.942 32.961 98.2785 30.4578 94.9928 30.4578ZM94.9928 40.0099C93.1952 40.0099 91.6479 38.5157 91.6479 36.3999C91.6479 34.2528 93.1987 32.79 94.9928 32.79C96.7904 32.79 98.3376 34.2528 98.3376 36.3999C98.3411 38.5296 96.7904 40.0099 94.9928 40.0099ZM82.0133 30.4578C78.7276 30.4578 76.0642 32.961 76.0642 36.4139C76.0642 39.8354 78.745 42.37 82.0133 42.37C85.299 42.37 87.9624 39.8493 87.9624 36.4139C87.9624 32.961 85.2955 30.4578 82.0133 30.4578ZM82.0133 40.0099C80.2157 40.0099 78.6685 38.5157 78.6685 36.3999C78.6685 34.2528 80.2192 32.79 82.0133 32.79C83.8109 32.79 85.3581 34.2528 85.3581 36.3999C85.3581 38.5296 83.8109 40.0099 82.0133 40.0099ZM66.5687 32.2768V34.7975H72.5942C72.4099 36.2114 71.944 37.2553 71.2313 37.971C70.3481 38.8578 68.9852 39.8214 66.5826 39.8214C62.8796 39.8214 59.9833 36.8189 59.9833 33.1007C59.9833 29.3825 62.8796 26.38 66.5826 26.38C68.5818 26.38 70.0387 27.1725 71.12 28.185L72.9002 26.3975C71.3982 24.9521 69.3989 23.8453 66.5965 23.8453C61.5167 23.8453 57.2539 28 57.2539 33.0867C57.2539 38.1875 61.5132 42.3281 66.5965 42.3281C69.3398 42.3281 71.3982 41.4274 73.0254 39.7306C74.6839 38.0653 75.2089 35.7157 75.2089 33.8199C75.2089 33.2299 75.1637 32.6992 75.0698 32.2488H66.5652C66.5687 32.2453 66.5687 32.2768 66.5687 32.2768ZM129.741 34.2389C129.244 32.9017 127.742 30.4438 124.662 30.4438C121.609 30.4438 119.071 32.8563 119.071 36.3999C119.071 39.7446 121.581 42.3561 124.957 42.3561C127.669 42.3561 129.248 40.6907 129.898 39.7132L127.885 38.3586C127.217 39.3536 126.289 40.0064 124.971 40.0064C123.639 40.0064 122.708 39.3989 122.089 38.2014L130.02 34.9022C130.02 34.9057 129.741 34.2389 129.741 34.2389ZM121.654 36.2289C121.591 33.9281 123.434 32.7586 124.752 32.7586C125.792 32.7586 126.657 33.2718 126.953 34.0189L121.654 36.2289ZM115.211 41.9999H117.815V24.5017H115.211V41.9999ZM110.935 31.781H110.841C110.253 31.0793 109.137 30.4438 107.711 30.4438C104.753 30.4438 102.027 33.0588 102.027 36.4174C102.027 39.762 104.739 42.3456 107.711 42.3456C109.12 42.3456 110.253 41.7067 110.841 40.991H110.935V41.8463C110.935 44.1191 109.725 45.3446 107.774 45.3446C106.178 45.3446 105.187 44.1925 104.784 43.2289L102.52 44.1785C103.171 45.7496 104.906 47.6942 107.771 47.6942C110.823 47.6942 113.41 45.8892 113.41 41.4867V30.7999H110.949V31.781C110.952 31.781 110.935 31.781 110.935 31.781ZM107.944 40.0099C106.147 40.0099 104.645 38.5017 104.645 36.4174C104.645 34.3157 106.147 32.7935 107.944 32.7935C109.725 32.7935 111.105 34.3331 111.105 36.4174C111.122 38.5017 109.728 40.0099 107.944 40.0099ZM141.935 24.5017H135.708V41.9999H138.312V35.3735H141.939C144.821 35.3735 147.655 33.2753 147.655 29.9446C147.655 26.6139 144.831 24.5017 141.935 24.5017ZM142.012 32.9296H138.309V26.9246H142.012C143.962 26.9246 145.064 28.5411 145.064 29.9271C145.064 31.2992 143.948 32.9296 142.012 32.9296ZM158.093 30.4264C156.201 30.4264 154.25 31.2678 153.444 33.1007L155.753 34.0643C156.25 33.1007 157.161 32.7725 158.124 32.7725C159.473 32.7725 160.836 33.5825 160.867 35.0279V35.2129C160.401 34.9476 159.379 34.5426 158.155 34.5426C155.662 34.5426 153.134 35.9112 153.134 38.4773C153.134 40.8269 155.179 42.3351 157.456 42.3351C159.205 42.3351 160.168 41.5426 160.77 40.6244H160.864V41.979H163.374V35.2758C163.374 32.1546 161.065 30.4264 158.093 30.4264ZM157.766 40.0099C156.914 40.0099 155.721 39.591 155.721 38.5157C155.721 37.161 157.209 36.6478 158.478 36.6478C159.626 36.6478 160.168 36.8957 160.85 37.2379C160.662 38.8089 159.341 39.996 157.766 40.0099ZM172.532 30.7999L169.542 38.39H169.448L166.35 30.7999H163.548L168.197 41.4099L165.547 47.3067H168.259L175.411 30.7999H172.532ZM149.091 41.9999H151.695V24.5017H149.091V41.9999Z" fill="white"/>
<path fill-rule="evenodd" clip-rule="evenodd" d="M14.5464 10.5471C14.1431 10.9836 13.9102 11.6504 13.9102 12.5232V43.4803C13.9102 44.3531 14.1431 45.02 14.5603 45.4389L14.6681 45.5332L31.9416 28.1885V27.801L14.6542 10.4529L14.5464 10.5471Z" fill="white" stroke="black" stroke-width="1.5"/>
<path fill-rule="evenodd" clip-rule="evenodd" d="M37.691 33.9875L31.9297 28.2025V27.7975L37.691 22.0125L37.8162 22.0893L44.6311 25.9785C46.5816 27.0818 46.5816 28.9042 44.6311 30.0214L37.8162 33.9107L37.691 33.9875Z" fill="white" stroke="black" stroke-width="1.5"/>
<path fill-rule="evenodd" clip-rule="evenodd" d="M37.8146 33.9107L31.9281 28L14.5469 45.4529C15.1832 46.1372 16.2506 46.214 17.4432 45.5471L37.8146 33.9107Z" fill="white" stroke="black" stroke-width="1.5"/>
<path fill-rule="evenodd" clip-rule="evenodd" d="M37.8146 22.0893L17.4432 10.4703C16.2506 9.78605 15.1797 9.88032 14.5469 10.5646L31.9281 28L37.8146 22.0893Z" fill="white" stroke="black" stroke-width="1.5"/>
<path opacity="0.2" fill-rule="evenodd" clip-rule="evenodd" d="M37.6913 33.7852L17.4588 45.3273C16.3288 45.9801 15.3205 45.9347 14.6703 45.3412L14.5625 45.4495L14.6703 45.5437C15.3205 46.1337 16.3288 46.1826 17.4588 45.5297L37.8304 33.9108L37.6913 33.7852Z" fill="black"/>
<path opacity="0.12" fill-rule="evenodd" clip-rule="evenodd" d="M44.6292 29.819L37.6719 33.785L37.797 33.9107L44.6119 30.0214C45.5889 29.4628 46.0687 28.7297 46.0687 28C46.0096 28.6703 45.5124 29.3057 44.6292 29.819Z" fill="black"/>
<path opacity="0.25" fill-rule="evenodd" clip-rule="evenodd" d="M17.4427 10.6728L44.629 26.1811C45.5121 26.6803 46.0094 27.3332 46.0858 28C46.0858 27.2703 45.606 26.5372 44.629 25.9786L17.4427 10.4703C15.4922 9.34964 13.9102 10.2853 13.9102 12.5232V12.7257C13.9102 10.4843 15.4922 9.5661 17.4427 10.6728Z" fill="white"/>
</g>
<defs>
<clipPath id="clip0_2297_11960">
<rect width="189" height="56" fill="white"/>
</clipPath>
</defs>
</svg>
