<svg width="69" height="24" viewBox="0 0 69 24" fill="none" xmlns="http://www.w3.org/2000/svg">
<g clip-path="url(#clip0_2297_8333)">
<path d="M2.21008 0.036665C1.60595 0.134655 1.14314 0.362134 0.743924 0.759345C0.3924 1.10756 0.16806 1.51177 0.0514737 1.99997C0.000246476 2.22045 -0.0121187 2.7069 0.0267433 2.95013C0.0656053 3.18461 0.175126 3.50658 0.284646 3.71306C0.593776 4.294 1.12371 4.73846 1.7508 4.94144C2.03167 5.03243 2.18535 5.05518 2.54571 5.05518C2.79655 5.05518 2.90783 5.04818 3.02265 5.02368C3.53316 4.91344 3.94474 4.70171 4.2998 4.36399C4.68135 4.00353 4.91983 3.57832 5.03994 3.04987C5.09647 2.7944 5.09824 2.2887 5.03994 2.03322C4.88626 1.34029 4.50471 0.794341 3.90765 0.412879C3.62501 0.230896 3.29115 0.106658 2.94316 0.0506639C2.79655 0.026166 2.3249 0.017417 2.21008 0.036665Z" fill="black"/>
<path d="M9.2238 0.0366163C8.82988 0.0996103 8.47305 0.227348 8.19219 0.40583C6.9857 1.17051 6.64477 2.74885 7.43084 3.93524C7.80357 4.49868 8.39003 4.88539 9.07718 5.02363C9.32095 5.07263 9.82792 5.06738 10.0699 5.01488C10.5115 4.91689 10.7429 4.8049 11.2411 4.44794C11.6562 4.15047 12.1632 3.98948 12.6861 3.99123C13.2813 3.99123 13.7406 4.15222 14.2829 4.55118C14.6044 4.78915 14.9224 4.93264 15.3057 5.01488C15.5654 5.07088 16.0776 5.07088 16.3373 5.01488C16.8478 4.90464 17.2612 4.68241 17.6233 4.32195C17.9943 3.95098 18.2115 3.55027 18.3246 3.02707C18.3793 2.7716 18.3793 2.31489 18.3228 2.05417C18.2098 1.52747 17.9907 1.12676 17.6162 0.757546C17.2506 0.398831 16.8425 0.176603 16.3426 0.0681133C16.166 0.0296173 15.6661 0.0138688 15.4735 0.0401163C15.1609 0.0838618 14.8217 0.197601 14.5673 0.342836C14.5002 0.383083 14.3518 0.479323 14.2405 0.558065C13.8978 0.801292 13.617 0.930779 13.2513 1.01652C12.9757 1.07951 12.5589 1.09176 12.2709 1.04277C11.8947 0.978024 11.5308 0.832789 11.2305 0.624559C10.6794 0.241346 10.4179 0.124108 9.95688 0.0506148C9.81026 0.0261173 9.33862 0.0173683 9.2238 0.0366163Z" fill="black"/>
<path d="M37.9187 0.139861C36.9807 0.302595 36.2564 0.981529 36.018 1.92119C35.965 2.12417 35.9526 2.59487 35.9915 2.8241C36.1575 3.79175 36.88 4.52843 37.8622 4.73316C38.1006 4.78391 38.4963 4.78566 38.7401 4.74016C39.5915 4.58093 40.2787 3.99124 40.5507 3.18631C40.6355 2.93609 40.6691 2.71911 40.6691 2.43914C40.6691 1.8162 40.4447 1.26675 40.0102 0.820544C39.6586 0.460079 39.1923 0.216853 38.7012 0.138111C38.4981 0.106614 38.1095 0.106614 37.9187 0.139861Z" fill="black"/>
<path d="M30.8345 0.902809C30.589 0.929056 30.2657 1.00255 29.9937 1.09179C28.8596 1.461 27.9623 2.31842 27.609 3.36657C27.4571 3.82152 27.4341 4.0455 27.4341 5.09015V5.92132H26.3831H25.332V7.76739V9.61346H26.3654H27.3988V14.3555V19.0975H29.4655H31.5323V14.3292V9.56096L33.8605 9.56446L36.1869 9.56971L36.1922 14.3327L36.1957 19.0975H38.236H40.2762L40.2727 12.5129L40.2674 5.93007L35.8831 5.92482L31.497 5.92132V5.53986C31.497 5.1024 31.5164 4.98341 31.6135 4.78393C31.7019 4.60895 31.882 4.42872 32.0569 4.33947C32.2901 4.22399 32.2866 4.22399 33.4984 4.22399H34.5883V2.5529V0.881811L32.7829 0.883562C31.7884 0.885311 30.9123 0.89406 30.8345 0.902809Z" fill="black"/>
<path d="M47.0432 5.68859C46.5203 5.70609 45.9497 5.81457 45.4074 5.99831C44.5189 6.29928 43.7522 6.77873 43.1022 7.43667C41.9452 8.6108 41.3817 10.1786 41.4329 12.0807C41.4894 14.2103 42.1059 15.8866 43.2435 17.017C44.2698 18.0336 45.607 18.5008 47.1933 18.3993C48.0836 18.3416 48.776 18.1789 49.4014 17.8814C49.8748 17.6557 50.3111 17.3284 50.5566 17.017L50.6308 16.9225L50.6255 18.0406L50.6202 19.1588L50.5778 19.2813C50.3235 20.0372 49.654 20.4904 48.6294 20.6006C48.4086 20.6251 47.907 20.6251 47.7144 20.6006C47.2657 20.5464 46.8806 20.4116 46.5644 20.1982C46.3136 20.0302 46.0115 19.6872 45.9056 19.451L45.872 19.3775H43.8158H41.7615V19.437C41.7615 19.5945 41.8657 20.0512 41.9752 20.3784C42.3285 21.43 43.0227 22.3365 43.9395 22.9437C44.7998 23.5141 45.8031 23.8483 47.0785 23.99C47.4176 24.0285 48.6082 24.0443 49.0181 24.0163C49.8094 23.9621 50.4842 23.8483 51.1007 23.6628C51.8497 23.4406 52.528 23.0959 53.0579 22.6724C53.2911 22.4869 53.6426 22.1265 53.8157 21.8973C54.162 21.437 54.4128 20.9156 54.5488 20.3749C54.6654 19.9129 54.6566 20.4939 54.6566 12.8716V5.93881H52.9908H51.325L51.0989 6.60375C50.9735 6.96946 50.8675 7.26868 50.8605 7.26868C50.8552 7.26868 50.8269 7.23544 50.7969 7.19694C50.6414 6.98871 50.1592 6.58625 49.8059 6.37102C49.0234 5.89682 48.0483 5.65534 47.0432 5.68859ZM48.3839 9.1515C48.7425 9.20399 49.1311 9.35973 49.4332 9.57321C49.6186 9.70444 49.9066 9.98617 50.0426 10.1681C50.3164 10.5374 50.4983 10.9538 50.5973 11.4333C50.6326 11.61 50.6379 11.6853 50.6379 12.0457C50.6379 12.4062 50.6326 12.4814 50.5973 12.6547C50.5107 13.0816 50.3076 13.5506 50.0691 13.8813C49.9225 14.0843 49.6416 14.3642 49.4508 14.5007C48.8202 14.9469 48.05 15.0747 47.3364 14.8507C47.1279 14.7859 46.9195 14.6862 46.7181 14.5532C46.4761 14.3957 46.1405 14.0615 45.9727 13.813C45.5452 13.1761 45.3615 12.3957 45.4622 11.631C45.5982 10.6126 46.1758 9.77094 47.0167 9.36673C47.4653 9.1515 47.9087 9.0815 48.3839 9.1515Z" fill="black"/>
<path d="M61.2973 5.69559C59.8418 5.77084 58.3226 6.49177 57.3352 7.57491C56.6357 8.34309 56.1623 9.28274 55.945 10.3274C55.8302 10.8856 55.8125 11.0903 55.8125 11.8707C55.8125 12.6494 55.8284 12.8734 55.9291 13.4806C56.2612 15.4946 57.208 16.9942 58.6636 17.8114C59.1564 18.0879 59.7923 18.2891 60.4229 18.3714C61.0324 18.4501 61.8573 18.4134 62.5515 18.2751C63.592 18.0686 64.4487 17.6084 64.9486 16.989L65.0051 16.919L65.0069 17.9531C65.0069 18.6006 64.9998 19.024 64.9875 19.0905C64.9327 19.4055 64.7808 19.7012 64.5582 19.9357C64.1979 20.3119 63.6785 20.5289 62.9596 20.6041C62.6734 20.6339 62.0817 20.6146 61.8591 20.5691C61.6524 20.5271 61.3574 20.4309 61.2055 20.3557C60.8116 20.1614 60.4724 19.8395 60.2975 19.4982L60.2375 19.3775H58.1796C56.5456 19.3775 56.1216 19.3828 56.1216 19.3985C56.1216 19.4685 56.1817 19.7975 56.2276 19.9829C56.4431 20.8474 56.883 21.64 57.4959 22.2665C58.5081 23.3024 59.9018 23.8728 61.7549 24.0146C62.0605 24.0373 63.1044 24.0373 63.4259 24.0146C65.2913 23.8798 66.6956 23.3636 67.6849 22.4502C68.2378 21.9375 68.6688 21.2393 68.8843 20.5061C68.909 20.4222 68.9461 20.2769 68.9673 20.1842L69.0079 20.0162L69.0115 12.9766L69.0168 5.93882L67.3545 5.94232L65.6923 5.94757L65.4679 6.59851C65.3461 6.95547 65.2401 7.25294 65.2348 7.25819C65.2295 7.26344 65.1712 7.2057 65.1058 7.13045C64.726 6.69125 64.0371 6.23104 63.4118 6.00181C62.7582 5.76034 62.0393 5.6571 61.2973 5.69559ZM62.8607 9.16726C63.2016 9.23725 63.569 9.39998 63.8428 9.60471C63.9241 9.66421 64.0742 9.80069 64.1767 9.90568C64.696 10.4376 64.9804 11.1166 65.0175 11.9145C65.0493 12.5899 64.8373 13.3213 64.454 13.8603C64.3251 14.0405 64.0071 14.366 63.834 14.4902C62.6858 15.3267 61.1507 15.0187 60.324 13.7868C59.5344 12.6127 59.6634 10.9363 60.6173 9.93193C61.0324 9.49622 61.5058 9.24075 62.0693 9.14976C62.2654 9.11826 62.6646 9.12701 62.8607 9.16726Z" fill="black"/>
<path d="M2.28866 7.63611C1.72339 7.69735 1.20406 7.93008 0.803071 8.30629C0.432115 8.65101 0.197176 9.04647 0.0682249 9.54342C0.0205306 9.7219 0.0134648 9.7814 0.00639896 10.0684C-0.00419977 10.4341 0.0169977 10.6038 0.108853 10.8978C0.465677 12.0422 1.60328 12.7876 2.79917 12.6599C3.29201 12.6056 3.70182 12.4429 4.11694 12.1349C4.33068 11.9739 4.50909 11.8707 4.72107 11.7832C5.52127 11.4525 6.43806 11.5627 7.14641 12.0737C7.42551 12.2749 7.50147 12.3239 7.66222 12.4026C8.77509 12.9538 10.1158 12.6389 10.8542 11.6555C11.4283 10.889 11.5166 9.87239 11.0838 9.01322C10.6882 8.2293 9.91975 7.7166 9.02416 7.63611C8.4006 7.58011 7.81767 7.7481 7.26123 8.14356C6.89911 8.40253 6.56525 8.55477 6.1784 8.63701C5.93992 8.68775 5.44532 8.693 5.20684 8.64576C4.86415 8.57751 4.4985 8.42528 4.23176 8.24155C3.68416 7.86183 3.41566 7.7376 2.97758 7.66235C2.78857 7.63086 2.46177 7.61861 2.28866 7.63611Z" fill="black"/>
<path d="M2.19182 15.2549C1.45697 15.3617 0.828113 15.7536 0.414763 16.3696C0.236351 16.6338 0.126831 16.8963 0.0438072 17.2515C-0.00388714 17.451 -0.00388714 18.0424 0.0420407 18.2576C0.151561 18.7616 0.375901 19.1711 0.743324 19.5368C1.12664 19.9165 1.57356 20.151 2.10526 20.2455C2.33313 20.2857 2.74472 20.2857 2.97789 20.2455C3.58025 20.1387 4.14198 19.8132 4.51647 19.3548C4.91569 18.8631 5.11 18.2821 5.0835 17.654C5.05524 16.9943 4.80794 16.4361 4.33983 15.9741C3.86112 15.5017 3.28525 15.2567 2.60693 15.2392C2.45325 15.2339 2.29604 15.2409 2.19182 15.2549Z" fill="black"/>
</g>
<defs>
<clipPath id="clip0_2297_8333">
<rect width="69" height="24" fill="white"/>
</clipPath>
</defs>
</svg>
