<svg width="80" height="80" viewBox="0 0 80 80" fill="none" xmlns="http://www.w3.org/2000/svg">
<g clip-path="url(#clip0_2297_12379)">
<path d="M80 0H0V80H80V0Z" fill="white"/>
<path d="M30.5903 6.40002H27.9023V9.08802H30.5903V6.40002Z" fill="black"/>
<path d="M46.7193 6.40002H44.0312V9.08802H46.7193V6.40002Z" fill="black"/>
<path d="M52.0943 6.40002H49.4062V9.08802H52.0943V6.40002Z" fill="black"/>
<path d="M30.5903 9.08801H27.9023V11.776H30.5903V9.08801Z" fill="black"/>
<path d="M35.9653 9.08801H33.2773V11.776H35.9653V9.08801Z" fill="black"/>
<path d="M41.3443 9.08801H38.6562V11.776H41.3443V9.08801Z" fill="black"/>
<path d="M52.0943 9.08801H49.4062V11.776H52.0943V9.08801Z" fill="black"/>
<path d="M30.5903 11.776H27.9023V14.464H30.5903V11.776Z" fill="black"/>
<path d="M35.9653 11.776H33.2773V14.464H35.9653V11.776Z" fill="black"/>
<path d="M38.6528 11.776H35.9648V14.464H38.6528V11.776Z" fill="black"/>
<path d="M44.0318 11.776H41.3438V14.464H44.0318V11.776Z" fill="black"/>
<path d="M49.4068 11.776H46.7188V14.464H49.4068V11.776Z" fill="black"/>
<path d="M35.9653 14.4641H33.2773V17.1521H35.9653V14.4641Z" fill="black"/>
<path d="M44.0318 14.4641H41.3438V17.1521H44.0318V14.4641Z" fill="black"/>
<path d="M52.0943 14.4641H49.4062V17.1521H52.0943V14.4641Z" fill="black"/>
<path d="M30.5903 17.152H27.9023V19.84H30.5903V17.152Z" fill="black"/>
<path d="M33.2778 17.152H30.5898V19.84H33.2778V17.152Z" fill="black"/>
<path d="M46.7193 17.152H44.0312V19.84H46.7193V17.152Z" fill="black"/>
<path d="M52.0943 17.152H49.4062V19.84H52.0943V17.152Z" fill="black"/>
<path d="M35.9653 19.84H33.2773V22.528H35.9653V19.84Z" fill="black"/>
<path d="M44.0318 19.84H41.3438V22.528H44.0318V19.84Z" fill="black"/>
<path d="M52.0943 19.84H49.4062V22.528H52.0943V19.84Z" fill="black"/>
<path d="M30.5903 22.528H27.9023V25.216H30.5903V22.528Z" fill="black"/>
<path d="M35.9653 22.528H33.2773V25.216H35.9653V22.528Z" fill="black"/>
<path d="M41.3443 22.528H38.6562V25.216H41.3443V22.528Z" fill="black"/>
<path d="M46.7193 22.528H44.0312V25.216H46.7193V22.528Z" fill="black"/>
<path d="M52.0943 22.528H49.4062V25.216H52.0943V22.528Z" fill="black"/>
<path d="M44.0318 25.216H41.3438V27.904H44.0318V25.216Z" fill="black"/>
<path d="M52.0943 25.2161H49.4062V27.9041H52.0943V25.2161Z" fill="black"/>
<path d="M9.08644 27.9041H6.39844V30.5921H9.08644V27.9041Z" fill="black"/>
<path d="M17.1489 27.9041H14.4609V30.5921H17.1489V27.9041Z" fill="black"/>
<path d="M19.8403 27.9041H17.1523V30.5921H19.8403V27.9041Z" fill="black"/>
<path d="M22.5278 27.9041H19.8398V30.5921H22.5278V27.9041Z" fill="black"/>
<path d="M25.2153 27.9041H22.5273V30.5921H25.2153V27.9041Z" fill="black"/>
<path d="M27.9028 27.9041H25.2148V30.5921H27.9028V27.9041Z" fill="black"/>
<path d="M30.5903 27.9041H27.9023V30.5921H30.5903V27.9041Z" fill="black"/>
<path d="M38.6528 27.9041H35.9648V30.5921H38.6528V27.9041Z" fill="black"/>
<path d="M46.7193 27.9041H44.0312V30.5921H46.7193V27.9041Z" fill="black"/>
<path d="M52.0943 27.9041H49.4062V30.5921H52.0943V27.9041Z" fill="black"/>
<path d="M54.7818 27.9041H52.0938V30.5921H54.7818V27.9041Z" fill="black"/>
<path d="M62.8482 27.9041H60.1602V30.5921H62.8482V27.9041Z" fill="black"/>
<path d="M68.2232 27.9041H65.5352V30.5921H68.2232V27.9041Z" fill="black"/>
<path d="M70.9107 27.9041H68.2227V30.5921H70.9107V27.9041Z" fill="black"/>
<path d="M73.5982 27.9041H70.9102V30.5921H73.5982V27.9041Z" fill="black"/>
<path d="M22.5278 30.592H19.8398V33.28H22.5278V30.592Z" fill="black"/>
<path d="M27.9028 30.592H25.2148V33.28H27.9028V30.592Z" fill="black"/>
<path d="M35.9653 30.592H33.2773V33.28H35.9653V30.592Z" fill="black"/>
<path d="M44.0318 30.592H41.3438V33.28H44.0318V30.592Z" fill="black"/>
<path d="M46.7193 30.592H44.0312V33.28H46.7193V30.592Z" fill="black"/>
<path d="M49.4068 30.592H46.7188V33.28H49.4068V30.592Z" fill="black"/>
<path d="M54.7818 30.592H52.0938V33.28H54.7818V30.592Z" fill="black"/>
<path d="M60.1607 30.592H57.4727V33.28H60.1607V30.592Z" fill="black"/>
<path d="M62.8482 30.592H60.1602V33.28H62.8482V30.592Z" fill="black"/>
<path d="M65.5357 30.592H62.8477V33.28H65.5357V30.592Z" fill="black"/>
<path d="M68.2232 30.592H65.5352V33.28H68.2232V30.592Z" fill="black"/>
<path d="M70.9107 30.592H68.2227V33.28H70.9107V30.592Z" fill="black"/>
<path d="M11.7739 33.28H9.08594V35.968H11.7739V33.28Z" fill="black"/>
<path d="M14.4614 33.28H11.7734V35.968H14.4614V33.28Z" fill="black"/>
<path d="M17.1489 33.28H14.4609V35.968H17.1489V33.28Z" fill="black"/>
<path d="M25.2153 33.28H22.5273V35.968H25.2153V33.28Z" fill="black"/>
<path d="M27.9028 33.28H25.2148V35.968H27.9028V33.28Z" fill="black"/>
<path d="M38.6528 33.28H35.9648V35.968H38.6528V33.28Z" fill="black"/>
<path d="M44.0318 33.28H41.3438V35.968H44.0318V33.28Z" fill="black"/>
<path d="M49.4068 33.28H46.7188V35.968H49.4068V33.28Z" fill="black"/>
<path d="M57.4693 33.28H54.7812V35.968H57.4693V33.28Z" fill="black"/>
<path d="M60.1607 33.28H57.4727V35.968H60.1607V33.28Z" fill="black"/>
<path d="M65.5357 33.28H62.8477V35.968H65.5357V33.28Z" fill="black"/>
<path d="M73.5982 33.28H70.9102V35.968H73.5982V33.28Z" fill="black"/>
<path d="M9.08644 35.968H6.39844V38.656H9.08644V35.968Z" fill="black"/>
<path d="M17.1489 35.968H14.4609V38.656H17.1489V35.968Z" fill="black"/>
<path d="M22.5278 35.968H19.8398V38.656H22.5278V35.968Z" fill="black"/>
<path d="M27.9028 35.968H25.2148V38.656H27.9028V35.968Z" fill="black"/>
<path d="M33.2778 35.968H30.5898V38.656H33.2778V35.968Z" fill="black"/>
<path d="M35.9653 35.968H33.2773V38.656H35.9653V35.968Z" fill="black"/>
<path d="M41.3443 35.968H38.6562V38.656H41.3443V35.968Z" fill="black"/>
<path d="M46.7193 35.968H44.0312V38.656H46.7193V35.968Z" fill="black"/>
<path d="M52.0943 35.968H49.4062V38.656H52.0943V35.968Z" fill="black"/>
<path d="M60.1607 35.968H57.4727V38.656H60.1607V35.968Z" fill="black"/>
<path d="M65.5357 35.968H62.8477V38.656H65.5357V35.968Z" fill="black"/>
<path d="M68.2232 35.968H65.5352V38.656H68.2232V35.968Z" fill="black"/>
<path d="M70.9107 35.968H68.2227V38.656H70.9107V35.968Z" fill="black"/>
<path d="M73.5982 35.968H70.9102V38.656H73.5982V35.968Z" fill="black"/>
<path d="M14.4614 38.656H11.7734V41.344H14.4614V38.656Z" fill="black"/>
<path d="M19.8403 38.656H17.1523V41.344H19.8403V38.656Z" fill="black"/>
<path d="M22.5278 38.656H19.8398V41.344H22.5278V38.656Z" fill="black"/>
<path d="M25.2153 38.656H22.5273V41.344H25.2153V38.656Z" fill="black"/>
<path d="M49.4068 38.656H46.7188V41.344H49.4068V38.656Z" fill="black"/>
<path d="M57.4693 38.656H54.7812V41.344H57.4693V38.656Z" fill="black"/>
<path d="M73.5982 38.656H70.9102V41.344H73.5982V38.656Z" fill="black"/>
<path d="M9.08644 41.3441H6.39844V44.0321H9.08644V41.3441Z" fill="black"/>
<path d="M11.7739 41.344H9.08594V44.032H11.7739V41.344Z" fill="black"/>
<path d="M19.8403 41.344H17.1523V44.032H19.8403V41.344Z" fill="black"/>
<path d="M22.5278 41.3441H19.8398V44.0321H22.5278V41.3441Z" fill="black"/>
<path d="M27.9028 41.3441H25.2148V44.0321H27.9028V41.3441Z" fill="black"/>
<path d="M30.5903 41.3441H27.9023V44.0321H30.5903V41.3441Z" fill="black"/>
<path d="M33.2778 41.344H30.5898V44.032H33.2778V41.344Z" fill="black"/>
<path d="M35.9653 41.3441H33.2773V44.0321H35.9653V41.3441Z" fill="black"/>
<path d="M41.3443 41.344H38.6562V44.032H41.3443V41.344Z" fill="black"/>
<path d="M46.7193 41.344H44.0312V44.032H46.7193V41.344Z" fill="black"/>
<path d="M49.4068 41.3441H46.7188V44.0321H49.4068V41.3441Z" fill="black"/>
<path d="M52.0943 41.344H49.4062V44.032H52.0943V41.344Z" fill="black"/>
<path d="M54.7818 41.344H52.0938V44.032H54.7818V41.344Z" fill="black"/>
<path d="M62.8482 41.3441H60.1602V44.0321H62.8482V41.3441Z" fill="black"/>
<path d="M70.9107 41.3441H68.2227V44.0321H70.9107V41.3441Z" fill="black"/>
<path d="M9.08644 44.032H6.39844V46.72H9.08644V44.032Z" fill="black"/>
<path d="M11.7739 44.032H9.08594V46.72H11.7739V44.032Z" fill="black"/>
<path d="M22.5278 44.032H19.8398V46.72H22.5278V44.032Z" fill="black"/>
<path d="M25.2153 44.032H22.5273V46.72H25.2153V44.032Z" fill="black"/>
<path d="M35.9653 44.032H33.2773V46.72H35.9653V44.032Z" fill="black"/>
<path d="M44.0318 44.032H41.3438V46.72H44.0318V44.032Z" fill="black"/>
<path d="M46.7193 44.032H44.0312V46.72H46.7193V44.032Z" fill="black"/>
<path d="M49.4068 44.032H46.7188V46.72H49.4068V44.032Z" fill="black"/>
<path d="M52.0943 44.032H49.4062V46.72H52.0943V44.032Z" fill="black"/>
<path d="M54.7818 44.032H52.0938V46.72H54.7818V44.032Z" fill="black"/>
<path d="M57.4693 44.032H54.7812V46.72H57.4693V44.032Z" fill="black"/>
<path d="M62.8482 44.032H60.1602V46.72H62.8482V44.032Z" fill="black"/>
<path d="M65.5357 44.032H62.8477V46.72H65.5357V44.032Z" fill="black"/>
<path d="M68.2232 44.032H65.5352V46.72H68.2232V44.032Z" fill="black"/>
<path d="M70.9107 44.032H68.2227V46.72H70.9107V44.032Z" fill="black"/>
<path d="M73.5982 44.032H70.9102V46.72H73.5982V44.032Z" fill="black"/>
<path d="M9.08644 46.72H6.39844V49.408H9.08644V46.72Z" fill="black"/>
<path d="M17.1489 46.72H14.4609V49.408H17.1489V46.72Z" fill="black"/>
<path d="M19.8403 46.72H17.1523V49.408H19.8403V46.72Z" fill="black"/>
<path d="M30.5903 46.72H27.9023V49.408H30.5903V46.72Z" fill="black"/>
<path d="M33.2778 46.72H30.5898V49.408H33.2778V46.72Z" fill="black"/>
<path d="M35.9653 46.72H33.2773V49.408H35.9653V46.72Z" fill="black"/>
<path d="M41.3443 46.72H38.6562V49.408H41.3443V46.72Z" fill="black"/>
<path d="M52.0943 46.72H49.4062V49.408H52.0943V46.72Z" fill="black"/>
<path d="M54.7818 46.72H52.0938V49.408H54.7818V46.72Z" fill="black"/>
<path d="M60.1607 46.72H57.4727V49.408H60.1607V46.72Z" fill="black"/>
<path d="M65.5357 46.72H62.8477V49.408H65.5357V46.72Z" fill="black"/>
<path d="M68.2232 46.72H65.5352V49.408H68.2232V46.72Z" fill="black"/>
<path d="M73.5982 46.72H70.9102V49.408H73.5982V46.72Z" fill="black"/>
<path d="M9.08644 49.408H6.39844V52.096H9.08644V49.408Z" fill="black"/>
<path d="M14.4614 49.408H11.7734V52.096H14.4614V49.408Z" fill="black"/>
<path d="M19.8403 49.408H17.1523V52.096H19.8403V49.408Z" fill="black"/>
<path d="M25.2153 49.408H22.5273V52.096H25.2153V49.408Z" fill="black"/>
<path d="M33.2778 49.408H30.5898V52.096H33.2778V49.408Z" fill="black"/>
<path d="M35.9653 49.408H33.2773V52.096H35.9653V49.408Z" fill="black"/>
<path d="M38.6528 49.408H35.9648V52.096H38.6528V49.408Z" fill="black"/>
<path d="M41.3443 49.408H38.6562V52.096H41.3443V49.408Z" fill="black"/>
<path d="M44.0318 49.408H41.3438V52.096H44.0318V49.408Z" fill="black"/>
<path d="M46.7193 49.408H44.0312V52.096H46.7193V49.408Z" fill="black"/>
<path d="M49.4068 49.408H46.7188V52.096H49.4068V49.408Z" fill="black"/>
<path d="M52.0943 49.408H49.4062V52.096H52.0943V49.408Z" fill="black"/>
<path d="M54.7818 49.408H52.0938V52.096H54.7818V49.408Z" fill="black"/>
<path d="M57.4693 49.408H54.7812V52.096H57.4693V49.408Z" fill="black"/>
<path d="M60.1607 49.408H57.4727V52.096H60.1607V49.408Z" fill="black"/>
<path d="M62.8482 49.408H60.1602V52.096H62.8482V49.408Z" fill="black"/>
<path d="M68.2232 49.408H65.5352V52.096H68.2232V49.408Z" fill="black"/>
<path d="M70.9107 49.408H68.2227V52.096H70.9107V49.408Z" fill="black"/>
<path d="M30.5903 52.096H27.9023V54.784H30.5903V52.096Z" fill="black"/>
<path d="M35.9653 52.096H33.2773V54.784H35.9653V52.096Z" fill="black"/>
<path d="M38.6528 52.096H35.9648V54.784H38.6528V52.096Z" fill="black"/>
<path d="M44.0318 52.096H41.3438V54.784H44.0318V52.096Z" fill="black"/>
<path d="M49.4068 52.096H46.7188V54.784H49.4068V52.096Z" fill="black"/>
<path d="M52.0943 52.096H49.4062V54.784H52.0943V52.096Z" fill="black"/>
<path d="M62.8482 52.096H60.1602V54.784H62.8482V52.096Z" fill="black"/>
<path d="M68.2232 52.096H65.5352V54.784H68.2232V52.096Z" fill="black"/>
<path d="M70.9107 52.096H68.2227V54.784H70.9107V52.096Z" fill="black"/>
<path d="M30.5903 54.7841H27.9023V57.4721H30.5903V54.7841Z" fill="black"/>
<path d="M35.9653 54.7841H33.2773V57.4721H35.9653V54.7841Z" fill="black"/>
<path d="M41.3443 54.784H38.6562V57.472H41.3443V54.784Z" fill="black"/>
<path d="M52.0943 54.784H49.4062V57.472H52.0943V54.784Z" fill="black"/>
<path d="M57.4693 54.7841H54.7812V57.4721H57.4693V54.7841Z" fill="black"/>
<path d="M62.8482 54.7841H60.1602V57.4721H62.8482V54.7841Z" fill="black"/>
<path d="M73.5982 54.784H70.9102V57.472H73.5982V54.784Z" fill="black"/>
<path d="M30.5903 57.472H27.9023V60.16H30.5903V57.472Z" fill="black"/>
<path d="M33.2778 57.472H30.5898V60.16H33.2778V57.472Z" fill="black"/>
<path d="M35.9653 57.472H33.2773V60.16H35.9653V57.472Z" fill="black"/>
<path d="M38.6528 57.472H35.9648V60.16H38.6528V57.472Z" fill="black"/>
<path d="M44.0318 57.472H41.3438V60.16H44.0318V57.472Z" fill="black"/>
<path d="M49.4068 57.472H46.7188V60.16H49.4068V57.472Z" fill="black"/>
<path d="M52.0943 57.472H49.4062V60.16H52.0943V57.472Z" fill="black"/>
<path d="M62.8482 57.472H60.1602V60.16H62.8482V57.472Z" fill="black"/>
<path d="M30.5903 60.16H27.9023V62.848H30.5903V60.16Z" fill="black"/>
<path d="M33.2778 60.16H30.5898V62.848H33.2778V60.16Z" fill="black"/>
<path d="M35.9653 60.16H33.2773V62.848H35.9653V60.16Z" fill="black"/>
<path d="M38.6528 60.16H35.9648V62.848H38.6528V60.16Z" fill="black"/>
<path d="M44.0318 60.16H41.3438V62.848H44.0318V60.16Z" fill="black"/>
<path d="M49.4068 60.16H46.7188V62.848H49.4068V60.16Z" fill="black"/>
<path d="M52.0943 60.16H49.4062V62.848H52.0943V60.16Z" fill="black"/>
<path d="M54.7818 60.16H52.0938V62.848H54.7818V60.16Z" fill="black"/>
<path d="M57.4693 60.16H54.7812V62.848H57.4693V60.16Z" fill="black"/>
<path d="M60.1607 60.16H57.4727V62.848H60.1607V60.16Z" fill="black"/>
<path d="M62.8482 60.16H60.1602V62.848H62.8482V60.16Z" fill="black"/>
<path d="M70.9107 60.16H68.2227V62.848H70.9107V60.16Z" fill="black"/>
<path d="M73.5982 60.16H70.9102V62.848H73.5982V60.16Z" fill="black"/>
<path d="M30.5903 62.848H27.9023V65.536H30.5903V62.848Z" fill="black"/>
<path d="M41.3443 62.848H38.6562V65.536H41.3443V62.848Z" fill="black"/>
<path d="M44.0318 62.848H41.3438V65.536H44.0318V62.848Z" fill="black"/>
<path d="M46.7193 62.848H44.0312V65.536H46.7193V62.848Z" fill="black"/>
<path d="M49.4068 62.848H46.7188V65.536H49.4068V62.848Z" fill="black"/>
<path d="M52.0943 62.848H49.4062V65.536H52.0943V62.848Z" fill="black"/>
<path d="M57.4693 62.848H54.7812V65.536H57.4693V62.848Z" fill="black"/>
<path d="M70.9107 62.848H68.2227V65.536H70.9107V62.848Z" fill="black"/>
<path d="M73.5982 62.848H70.9102V65.536H73.5982V62.848Z" fill="black"/>
<path d="M33.2778 65.536H30.5898V68.224H33.2778V65.536Z" fill="black"/>
<path d="M38.6528 65.536H35.9648V68.224H38.6528V65.536Z" fill="black"/>
<path d="M44.0318 65.536H41.3438V68.224H44.0318V65.536Z" fill="black"/>
<path d="M49.4068 65.536H46.7188V68.224H49.4068V65.536Z" fill="black"/>
<path d="M54.7818 65.536H52.0938V68.224H54.7818V65.536Z" fill="black"/>
<path d="M62.8482 65.536H60.1602V68.224H62.8482V65.536Z" fill="black"/>
<path d="M65.5357 65.536H62.8477V68.224H65.5357V65.536Z" fill="black"/>
<path d="M68.2232 65.536H65.5352V68.224H68.2232V65.536Z" fill="black"/>
<path d="M70.9107 65.536H68.2227V68.224H70.9107V65.536Z" fill="black"/>
<path d="M73.5982 65.536H70.9102V68.224H73.5982V65.536Z" fill="black"/>
<path d="M38.6528 68.2241H35.9648V70.9121H38.6528V68.2241Z" fill="black"/>
<path d="M41.3443 68.2241H38.6562V70.9121H41.3443V68.2241Z" fill="black"/>
<path d="M44.0318 68.2241H41.3438V70.9121H44.0318V68.2241Z" fill="black"/>
<path d="M60.1607 68.2241H57.4727V70.9121H60.1607V68.2241Z" fill="black"/>
<path d="M62.8482 68.2241H60.1602V70.9121H62.8482V68.2241Z" fill="black"/>
<path d="M68.2232 68.2241H65.5352V70.9121H68.2232V68.2241Z" fill="black"/>
<path d="M70.9107 68.2241H68.2227V70.9121H70.9107V68.2241Z" fill="black"/>
<path d="M73.5982 68.2241H70.9102V70.9121H73.5982V68.2241Z" fill="black"/>
<path d="M30.5903 70.912H27.9023V73.6H30.5903V70.912Z" fill="black"/>
<path d="M38.6528 70.912H35.9648V73.6H38.6528V70.912Z" fill="black"/>
<path d="M41.3443 70.912H38.6562V73.6H41.3443V70.912Z" fill="black"/>
<path d="M44.0318 70.912H41.3438V73.6H44.0318V70.912Z" fill="black"/>
<path d="M52.0943 70.912H49.4062V73.6H52.0943V70.912Z" fill="black"/>
<path d="M54.7818 70.912H52.0938V73.6H54.7818V70.912Z" fill="black"/>
<path d="M65.5357 70.912H62.8477V73.6H65.5357V70.912Z" fill="black"/>
<path d="M73.5982 70.912H70.9102V73.6H73.5982V70.912Z" fill="black"/>
<path d="M22.392 6.40002H9.22084H6.39844V9.22242V22.3936V25.216H9.22084H22.392H25.2144V22.3936V9.22242V6.40002H22.392ZM22.392 22.3936H9.22084V9.22242H22.392V22.3936Z" fill="black"/>
<path d="M70.7749 6.40002H57.6037H54.7812V9.22242V22.3936V25.216H57.6037H70.7749H73.5973V22.3936V9.22242V6.40002H70.7749ZM70.7749 22.3936H57.6037V9.22242H70.7749V22.3936Z" fill="black"/>
<path d="M22.392 54.7841H9.22084H6.39844V57.6065V70.7777V73.6001H9.22084H22.392H25.2144V70.7777V57.6065V54.7841H22.392ZM22.392 70.7777H9.22084V57.6065H22.392V70.7777Z" fill="black"/>
<path d="M19.8374 11.776H11.7734V19.84H19.8374V11.776Z" fill="black"/>
<path d="M68.2242 11.776H60.1602V19.84H68.2242V11.776Z" fill="black"/>
<path d="M19.8374 60.16H11.7734V68.224H19.8374V60.16Z" fill="black"/>
</g>
<rect x="0.75" y="0.75" width="78.5" height="78.5" rx="7.25" stroke="black" stroke-width="1.5"/>
<defs>
<clipPath id="clip0_2297_12379">
<rect width="80" height="80" rx="8" fill="white"/>
</clipPath>
</defs>
</svg>
